<?xml version="1.0" standalone="no"?>
<!DOCTYPE svg PUBLIC "-//W3C//DTD SVG 1.1//EN" "http://www.w3.org/Graphics/SVG/1.1/DTD/svg11.dtd" >
<svg xmlns="http://www.w3.org/2000/svg" xmlns:xlink="http://www.w3.org/1999/xlink" version="1.1">
<metadata>
Created by FontForge 20170910 at Fri Jul 31 05:15:48 2015
 By Jimmy Wärting
Copyright (c) 2012 by TypeTogether. All rights reserved.
</metadata>
<defs>
<font id="AdelleSans-Semibold" horiz-adv-x="570" >
  <font-face 
    font-family="Adelle Sans SemBd"
    font-weight="600"
    font-stretch="normal"
    units-per-em="1000"
    panose-1="0 0 0 0 0 0 0 0 0 0"
    ascent="750"
    descent="-250"
    x-height="517"
    cap-height="724"
    bbox="-82 -232 999 918"
    underline-thickness="50"
    underline-position="-100"
    stemh="98"
    stemv="117"
    unicode-range="U+000D-2122"
  />
<missing-glyph horiz-adv-x="500" 
d="M100 50h300v400h-300v-400zM50 0v500h400v-500h-400z" />
    <glyph glyph-name=".notdef" horiz-adv-x="500" 
d="M100 50h300v400h-300v-400zM50 0v500h400v-500h-400z" />
    <glyph glyph-name="space" unicode=" " horiz-adv-x="198" 
 />
    <glyph glyph-name="exclam" unicode="!" horiz-adv-x="276" 
d="M214 58c0 -47 -25 -70 -75 -70c-51 0 -76 23 -76 70s25 71 76 71c50 0 75 -24 75 -71zM184 191h-91l-18 533h126z" />
    <glyph glyph-name="quotedbl" unicode="&#x22;" horiz-adv-x="392" 
d="M163 465h-108v259h108v-259zM337 465h-108v259h108v-259z" />
    <glyph glyph-name="numbersign" unicode="#" horiz-adv-x="607" 
d="M346 225l19 131h-106l-20 -131h107zM397 0h-85l22 142h-108l-21 -142h-85l21 142h-109l18 83h104l21 131h-109l17 84h104l19 133h85l-20 -133h106l20 133h85l-20 -133h110l-16 -84h-106l-19 -131h108l-16 -83h-105z" />
    <glyph glyph-name="dollar" unicode="$" horiz-adv-x="537" 
d="M161 523c0 -48 22 -77 74 -100v189c-53 -12 -74 -48 -74 -89zM387 188c0 56 -32 80 -75 97v-190c45 11 75 40 75 93zM489 522l-105 -14c-9 53 -25 90 -72 103v-211c99 -27 187 -65 187 -197c0 -119 -71 -185 -182 -201v-83h-89v83c-98 8 -188 57 -204 197l102 19
c13 -76 36 -118 109 -127v216c-93 24 -187 63 -187 200c0 115 82 180 181 199v86h88v-85c94 -11 159 -65 172 -185z" />
    <glyph glyph-name="percent" unicode="%" horiz-adv-x="813" 
d="M189 446c56 0 73 42 73 114c0 64 -16 106 -71 106c-56 0 -75 -48 -75 -109c0 -68 17 -111 73 -111zM185 375c-122 0 -163 83 -163 176c0 112 56 187 171 187c116 0 162 -69 162 -174c0 -113 -57 -189 -170 -189zM229 -15h-104l439 739h103zM616 59c56 0 73 42 73 114
c0 64 -16 106 -71 106c-56 0 -75 -48 -75 -109c0 -68 17 -111 73 -111zM612 -12c-122 0 -163 83 -163 176c0 112 56 187 171 187c116 0 162 -69 162 -174c0 -113 -57 -189 -170 -189z" />
    <glyph glyph-name="ampersand" unicode="&#x26;" horiz-adv-x="717" 
d="M263 540c0 -35 9 -67 28 -106c0 0 28 13 28 12c64 28 90 61 90 108c0 36 -21 64 -68 64c-45 0 -78 -27 -78 -78zM305 75c39 0 72 8 99 24c-68 63 -125 136 -177 219c-36 -23 -62 -56 -62 -117c0 -66 44 -126 140 -126zM508 560c0 -61 -27 -131 -154 -181l-28 -11
c43 -67 94 -128 155 -195c31 47 39 108 42 176h102c0 -81 -19 -167 -71 -235c27 -19 52 -31 83 -31c13 0 27 3 42 9l16 -86c-23 -11 -52 -16 -76 -16c-56 0 -100 19 -144 51c-43 -32 -106 -53 -190 -53c-148 0 -237 85 -237 201c0 97 48 157 140 200c-27 47 -37 88 -37 135
c0 104 81 176 196 176c76 0 161 -31 161 -140z" />
    <glyph glyph-name="quoteright" unicode="&#x2019;" horiz-adv-x="215" 
d="M29 546l53 224h117l-84 -234z" />
    <glyph glyph-name="parenleft" unicode="(" horiz-adv-x="335" 
d="M313 -153l-119 1c-72 107 -145 252 -145 432c0 179 74 328 156 444h118c-91 -139 -153 -274 -153 -442c0 -182 65 -309 143 -435z" />
    <glyph glyph-name="parenright" unicode=")" horiz-adv-x="335" 
d="M143 -152l-119 -1c78 126 143 253 143 435c0 168 -63 304 -153 442h118c82 -116 156 -265 156 -444c0 -180 -73 -325 -145 -432z" />
    <glyph glyph-name="asterisk" unicode="*" horiz-adv-x="473" 
d="M262 755l19 -131l120 30l17 -55l-114 -57l76 -116l-44 -34l-102 96l-101 -99l-44 36l75 116l-116 57l17 55l121 -27l22 129h54z" />
    <glyph glyph-name="plus" unicode="+" 
d="M333 125h-98v149h-141v97h141v145h98v-145h142v-97h-142v-149z" />
    <glyph glyph-name="comma" unicode="," horiz-adv-x="229" 
d="M12 -122l58 238h124l-90 -248z" />
    <glyph glyph-name="hyphen" unicode="-" horiz-adv-x="315" 
d="M291 242h-271v103h271v-103z" />
    <glyph glyph-name="period" unicode="." horiz-adv-x="244" 
d="M200 63c0 -50 -26 -75 -78 -75s-78 25 -78 75c0 51 26 76 78 76s78 -25 78 -76z" />
    <glyph glyph-name="slash" unicode="/" horiz-adv-x="404" 
d="M113 -92h-105l281 847h104z" />
    <glyph glyph-name="zero" unicode="0" horiz-adv-x="571" 
d="M286 80c107 0 127 102 127 286c0 176 -15 275 -123 275c-107 0 -132 -100 -132 -281c0 -176 20 -280 128 -280zM283 -12c-198 0 -246 150 -246 374s58 375 256 375c197 0 241 -152 241 -365c0 -235 -54 -384 -251 -384z" />
    <glyph glyph-name="one" unicode="1" horiz-adv-x="424" 
d="M312 0h-114v579c-34 -18 -122 -32 -155 -32l-7 93c92 8 157 32 204 84h72v-724z" />
    <glyph glyph-name="two" unicode="2" horiz-adv-x="531" 
d="M271 737c129 0 206 -62 206 -183c0 -107 -55 -180 -157 -296l-138 -158v-2h305v-98h-436v96l163 194c96 115 147 175 147 260c0 65 -37 93 -101 93c-83 0 -107 -47 -118 -116l-102 18c19 136 113 192 231 192z" />
    <glyph glyph-name="three" unicode="3" horiz-adv-x="546" 
d="M31 165l104 20c11 -64 34 -103 118 -103c67 0 123 36 123 127c0 92 -53 124 -138 124h-67v91h46c96 0 149 49 149 125c0 55 -24 95 -101 95c-76 0 -101 -33 -116 -97l-100 21c24 127 119 169 228 169c133 0 203 -66 203 -173c0 -103 -74 -155 -138 -174v-3
c96 -19 152 -74 152 -183c0 -131 -97 -216 -242 -216c-117 0 -205 50 -221 177z" />
    <glyph glyph-name="four" unicode="4" 
d="M131 267h224v349zM465 0h-111v172h-330v83l300 469h142v-457h84v-95h-85v-172z" />
    <glyph glyph-name="five" unicode="5" horiz-adv-x="549" 
d="M68 346l28 378h360v-98h-274l-20 -214c33 27 77 48 141 48c101 0 196 -57 196 -221c0 -152 -99 -251 -251 -251c-108 0 -204 49 -223 177l103 21c11 -57 38 -104 122 -104c68 0 132 44 132 153c0 99 -54 131 -118 131c-47 0 -87 -22 -119 -53z" />
    <glyph glyph-name="six" unicode="6" 
d="M172 287c3 -99 21 -208 125 -208c71 0 115 50 115 147c0 84 -33 125 -105 125c-51 0 -102 -31 -135 -64zM522 577l-102 -29c-16 76 -50 97 -101 97c-113 0 -150 -141 -153 -272c35 35 98 70 170 70c123 0 193 -77 193 -208c0 -164 -98 -247 -235 -247
c-193 0 -239 160 -239 353c0 164 51 396 275 396c91 0 168 -38 192 -160z" />
    <glyph glyph-name="seven" unicode="7" horiz-adv-x="520" 
d="M210 0h-122l288 626h-343v98h464v-87z" />
    <glyph glyph-name="eight" unicode="8" horiz-adv-x="551" 
d="M291 426c61 33 101 79 101 136c0 56 -34 90 -107 90c-68 0 -112 -36 -112 -93c0 -65 51 -104 118 -133zM256 326c-63 -32 -111 -70 -111 -141c0 -61 36 -107 128 -107c91 0 130 53 130 109c0 83 -78 113 -147 139zM376 385c86 -40 146 -87 146 -195
c0 -113 -96 -202 -252 -202c-168 0 -239 86 -239 187c0 96 53 156 145 197c-80 36 -120 96 -120 172c0 123 97 193 233 193c140 0 217 -64 217 -167c0 -85 -50 -140 -130 -185z" />
    <glyph glyph-name="nine" unicode="9" 
d="M401 433c-5 107 -21 212 -126 212c-69 0 -114 -47 -114 -147c0 -85 32 -131 104 -131c51 0 101 29 136 66zM40 153l102 30c16 -76 53 -104 117 -104c109 0 147 124 150 265c-35 -35 -100 -66 -172 -66c-123 0 -192 79 -192 214c0 161 99 245 236 245
c189 0 237 -160 237 -353c0 -187 -42 -396 -266 -396c-104 0 -191 42 -212 165z" />
    <glyph glyph-name="colon" unicode=":" horiz-adv-x="244" 
d="M200 428c0 -50 -26 -75 -78 -75s-78 25 -78 75c0 51 26 76 78 76s78 -25 78 -76zM200 63c0 -50 -26 -75 -78 -75s-78 25 -78 75c0 51 26 76 78 76s78 -25 78 -76z" />
    <glyph glyph-name="semicolon" unicode=";" horiz-adv-x="256" 
d="M224 428c0 -50 -26 -75 -78 -75s-78 25 -78 75c0 51 26 76 78 76s78 -25 78 -76zM13 -122l58 238h124l-90 -248z" />
    <glyph glyph-name="less" unicode="&#x3c;" 
d="M461 89l-383 142v115l383 148v-100l-282 -103l282 -102v-100z" />
    <glyph glyph-name="equal" unicode="=" 
d="M474 319h-378v99h378v-99zM474 145h-378v99h378v-99z" />
    <glyph glyph-name="greater" unicode="&#x3e;" 
d="M477 234l-383 -141v97l281 101l-281 102v101l383 -148v-112z" />
    <glyph glyph-name="question" unicode="?" horiz-adv-x="524" 
d="M288 58c0 -47 -25 -70 -76 -70s-76 23 -76 70s25 71 76 71s76 -24 76 -71zM270 191h-112v180c103 8 205 40 205 151c0 77 -46 107 -109 107c-65 0 -108 -27 -124 -110l-109 18c16 107 88 193 240 193c116 0 223 -48 223 -203c0 -133 -87 -203 -214 -229v-107z" />
    <glyph glyph-name="at" unicode="@" horiz-adv-x="847" 
d="M496 116v186c-17 15 -39 27 -70 27c-55 0 -96 -42 -96 -142c0 -72 19 -125 78 -125c37 0 67 21 88 54zM630 -52l33 -68c-52 -41 -135 -63 -235 -63c-213 0 -384 122 -384 370c0 232 161 390 401 390c207 0 358 -116 358 -327c0 -178 -75 -256 -182 -256
c-57 0 -100 24 -116 55c-27 -36 -67 -57 -116 -57c-103 0 -146 79 -146 186c0 125 64 219 169 219c39 0 68 -14 89 -35l7 29h70v-257c0 -40 5 -71 49 -71c59 0 89 80 89 176c0 169 -90 260 -277 260c-205 0 -306 -144 -306 -308c0 -208 129 -296 305 -296
c79 0 144 20 192 53z" />
    <glyph glyph-name="A" unicode="A" horiz-adv-x="696" 
d="M448 296l-105 320h-2l-106 -320h213zM268 724h149l254 -724h-128l-68 198h-263l-66 -198h-119z" />
    <glyph glyph-name="B" unicode="B" horiz-adv-x="631" 
d="M203 416h86c75 0 166 18 166 114c0 86 -52 100 -139 100h-113v-214zM203 94h107c96 0 166 16 166 112c0 90 -65 115 -148 115h-125v-227zM329 0h-242v724h266c172 0 219 -77 219 -177c0 -101 -67 -150 -144 -169v-3c119 -15 171 -77 171 -177c0 -148 -113 -198 -270 -198
z" />
    <glyph glyph-name="C" unicode="C" horiz-adv-x="693" 
d="M370 -12c-233 0 -325 145 -325 364c0 238 126 385 342 385c155 0 265 -79 276 -253l-108 -10c-12 109 -61 162 -169 162c-137 0 -221 -87 -221 -276c0 -196 76 -273 211 -273c108 0 158 52 179 144l104 -20c-24 -165 -162 -223 -289 -223z" />
    <glyph glyph-name="D" unicode="D" horiz-adv-x="726" 
d="M204 95h100c179 0 257 99 257 267c0 205 -89 267 -248 267h-109v-534zM305 0h-218v724h235c251 0 359 -135 359 -351c0 -222 -117 -373 -376 -373z" />
    <glyph glyph-name="E" unicode="E" horiz-adv-x="578" 
d="M204 315v-217h336v-98h-453v724h438v-98h-321v-214h301v-97h-301z" />
    <glyph glyph-name="F" unicode="F" horiz-adv-x="550" 
d="M204 302v-302h-117v724h436v-98h-319v-226h295v-98h-295z" />
    <glyph glyph-name="G" unicode="G" horiz-adv-x="737" 
d="M581 0l-14 94c-29 -64 -117 -106 -214 -106c-217 0 -308 151 -308 364c0 240 125 385 344 385c154 0 262 -70 275 -247l-109 -12c-11 103 -58 160 -169 160c-144 0 -220 -100 -220 -275c0 -205 81 -277 213 -277c116 0 175 76 175 155v47h-169v88h282v-376h-86z" />
    <glyph glyph-name="H" unicode="H" horiz-adv-x="730" 
d="M643 724v-724h-117v316h-322v-316h-117v724h117v-305h322v305h117z" />
    <glyph glyph-name="I" unicode="I" horiz-adv-x="291" 
d="M204 724v-724h-117v724h117z" />
    <glyph glyph-name="J" unicode="J" horiz-adv-x="511" 
d="M315 187v537h117v-534c0 -143 -80 -202 -211 -202c-119 0 -195 51 -200 183l113 18c5 -63 19 -104 90 -104c54 0 91 19 91 102z" />
    <glyph glyph-name="K" unicode="K" horiz-adv-x="655" 
d="M204 724v-338l307 338h127l-276 -307l283 -417h-137l-228 327l-76 -82v-245h-117v724h117z" />
    <glyph glyph-name="L" unicode="L" horiz-adv-x="558" 
d="M204 724v-625h320v-99h-437v724h117z" />
    <glyph glyph-name="M" unicode="M" horiz-adv-x="904" 
d="M817 724v-724h-109v602h-3l-199 -602h-114l-195 604h-2v-604h-108v724h176l189 -582h3l188 582h174z" />
    <glyph glyph-name="N" unicode="N" horiz-adv-x="745" 
d="M658 0h-138l-325 569v-569h-108v724h147l317 -566v566h107v-724z" />
    <glyph glyph-name="O" unicode="O" horiz-adv-x="760" 
d="M380 88c125 0 215 82 215 277c0 184 -81 270 -208 270c-131 0 -221 -88 -221 -273c0 -188 86 -274 214 -274zM375 -12c-230 0 -330 155 -330 372c0 216 118 377 345 377c226 0 325 -162 325 -362c0 -235 -112 -387 -340 -387z" />
    <glyph glyph-name="P" unicode="P" horiz-adv-x="618" 
d="M203 350h87c94 0 169 22 169 146c0 99 -56 132 -156 132h-100v-278zM203 253v-253h-116v724h252c185 0 241 -104 241 -220c0 -173 -100 -251 -280 -251h-97z" />
    <glyph glyph-name="Q" unicode="Q" horiz-adv-x="760" 
d="M380 83c39 0 76 6 107 25l-124 135l67 63l120 -132c31 49 47 111 47 191c0 184 -83 270 -210 270c-131 0 -221 -88 -221 -273c0 -188 86 -279 214 -279zM375 -12c-228 0 -330 155 -330 372c0 216 118 377 345 377c226 0 325 -162 325 -362c0 -121 -28 -214 -91 -283
l87 -92l-67 -62l-91 96c-46 -31 -105 -46 -178 -46z" />
    <glyph glyph-name="R" unicode="R" horiz-adv-x="639" 
d="M203 385h113c85 0 148 28 148 131c0 85 -56 112 -151 112h-110v-243zM451 321l173 -321h-127l-156 291h-138v-291h-116v724h262c180 0 236 -99 236 -200c0 -108 -54 -172 -134 -203z" />
    <glyph glyph-name="S" unicode="S" horiz-adv-x="599" 
d="M306 642c-96 0 -134 -39 -134 -98c0 -175 387 -75 387 -337c0 -157 -126 -219 -264 -219c-143 0 -254 51 -270 215l108 16c16 -75 47 -138 164 -138c72 0 145 24 145 110c0 183 -387 65 -387 339c0 131 109 207 252 207c126 0 233 -48 246 -208l-108 -13
c-11 69 -38 126 -139 126z" />
    <glyph glyph-name="T" unicode="T" horiz-adv-x="571" 
d="M345 0h-117v626h-217v98h549v-98h-215v-626z" />
    <glyph glyph-name="U" unicode="U" horiz-adv-x="711" 
d="M357 86c111 0 157 48 157 176v462h117v-474c0 -181 -107 -262 -280 -262c-191 0 -271 88 -271 265v471h117v-459c0 -127 47 -179 160 -179z" />
    <glyph glyph-name="V" unicode="V" horiz-adv-x="637" 
d="M403 0h-158l-240 724h131l190 -611h3l184 611h119z" />
    <glyph glyph-name="W" unicode="W" horiz-adv-x="919" 
d="M752 0h-149l-140 557h-2l-141 -557h-149l-158 724h123l115 -594h2l147 594h127l150 -599h2l109 599h117z" />
    <glyph glyph-name="X" unicode="X" horiz-adv-x="635" 
d="M610 724l-226 -355l243 -369h-134l-183 275l-175 -275h-127l236 366l-224 358h130l168 -270l170 270h122z" />
    <glyph glyph-name="Y" unicode="Y" horiz-adv-x="582" 
d="M355 279l1 -279h-118v277l-248 447h128l180 -336h2l174 336h118z" />
    <glyph glyph-name="Z" unicode="Z" horiz-adv-x="589" 
d="M538 637l-365 -539h380v-98h-522v84l369 542h-359v98h497v-87z" />
    <glyph glyph-name="bracketleft" unicode="[" horiz-adv-x="290" 
d="M252 -143h-191v867h191v-81h-81v-705h81v-81z" />
    <glyph glyph-name="backslash" unicode="\" horiz-adv-x="406" 
d="M399 -92h-105l-280 847h104z" />
    <glyph glyph-name="bracketright" unicode="]" horiz-adv-x="290" 
d="M229 -143h-191v81h81v705h-81v81h191v-867z" />
    <glyph glyph-name="asciicircum" unicode="^" horiz-adv-x="616" 
d="M566 299h-112l-148 264l-145 -264h-109l197 365h117z" />
    <glyph glyph-name="underscore" unicode="_" horiz-adv-x="500" 
d="M500 -181h-500v86h500v-86z" />
    <glyph glyph-name="quoteleft" unicode="&#x2018;" horiz-adv-x="215" 
d="M202 774l-53 -224h-117l84 234z" />
    <glyph glyph-name="a" unicode="a" horiz-adv-x="550" 
d="M354 122v102c-11 1 -21 2 -48 2c-59 0 -142 -7 -142 -83c0 -36 16 -69 77 -69c47 0 90 24 113 48zM466 348v-239c0 -28 4 -40 31 -40c7 0 18 2 31 6l4 -68c-20 -11 -53 -17 -81 -17c-55 0 -78 21 -87 61c-35 -39 -92 -63 -164 -63c-131 0 -153 88 -153 139
c0 133 114 178 253 178c24 0 38 -1 53 -2v39c0 63 -14 99 -90 99c-63 0 -84 -27 -95 -80l-101 18c16 97 77 149 205 149c133 0 194 -51 194 -180z" />
    <glyph glyph-name="b" unicode="b" horiz-adv-x="586" 
d="M187 379v-251c21 -16 65 -44 116 -44c84 0 119 66 119 185c0 108 -31 165 -111 165c-49 0 -97 -31 -124 -55zM170 0h-98v755h113v-288c44 40 96 61 167 61c107 0 189 -68 189 -257c0 -202 -95 -283 -216 -283c-64 0 -111 25 -146 56l-2 -1z" />
    <glyph glyph-name="c" unicode="c" horiz-adv-x="541" 
d="M285 -12c-171 0 -242 109 -242 264c0 180 93 276 256 276c115 0 195 -66 204 -189l-106 -15c-8 68 -35 112 -103 112c-67 0 -131 -34 -131 -171c0 -140 56 -183 128 -183c64 0 102 31 114 103l100 -20c-16 -124 -110 -177 -220 -177z" />
    <glyph glyph-name="d" unicode="d" horiz-adv-x="583" 
d="M399 134v260c-23 17 -63 40 -112 40c-91 0 -123 -75 -123 -183c0 -113 34 -170 118 -170c44 0 89 24 117 53zM514 755v-755h-96l-8 52h-2c-41 -39 -91 -64 -163 -64c-119 0 -200 74 -200 262c0 205 106 278 218 278c57 0 104 -15 139 -45v272h112z" />
    <glyph glyph-name="e" unicode="e" horiz-adv-x="547" 
d="M166 310h217c0 88 -31 127 -100 127c-58 0 -112 -35 -117 -127zM287 -12c-186 0 -244 128 -244 270c0 187 112 270 247 270c150 0 212 -96 212 -229c0 -22 -1 -45 -3 -69h-335c3 -108 55 -148 130 -148c67 0 94 31 106 84l98 -24c-20 -99 -98 -154 -211 -154z" />
    <glyph glyph-name="f" unicode="f" horiz-adv-x="342" 
d="M356 747l-4 -83c-20 7 -47 13 -71 13c-47 0 -80 -17 -80 -89v-71h141v-85h-141v-432h-115v432h-74v85h74v74c0 120 64 174 168 174c47 0 85 -10 102 -18z" />
    <glyph glyph-name="g" unicode="g" horiz-adv-x="555" 
d="M416 -72c0 32 -15 50 -78 53l-159 8c-27 -19 -42 -39 -42 -67c0 -43 43 -61 140 -61c91 0 139 20 139 67zM385 342c0 65 -42 97 -111 97c-65 0 -114 -28 -114 -95c0 -60 33 -97 113 -97c67 0 112 35 112 95zM271 528c60 0 110 -10 145 -41c19 43 47 71 86 71
c17 0 26 -1 41 -6v-85c-32 3 -63 -2 -90 -10c27 -31 40 -71 40 -114c0 -117 -93 -185 -218 -185c-35 0 -61 2 -88 10c-13 -11 -25 -24 -25 -39c0 -19 9 -31 53 -34l147 -9c108 -7 172 -40 172 -135c0 -136 -130 -177 -268 -177c-192 0 -240 64 -240 129c0 55 38 88 86 104v3
c-39 13 -61 38 -61 78c0 47 34 77 73 106c-47 27 -76 76 -76 143c0 112 84 191 223 191z" />
    <glyph glyph-name="h" unicode="h" horiz-adv-x="583" 
d="M517 352v-352h-115v333c0 65 -24 99 -85 99c-51 0 -107 -31 -131 -55v-377h-115v755h114v-289c45 36 101 62 173 62c112 0 159 -59 159 -176z" />
    <glyph glyph-name="i" unicode="i" horiz-adv-x="257" 
d="M206 680c0 -49 -27 -76 -75 -76c-47 0 -75 27 -75 76c0 48 28 75 75 75c48 0 75 -27 75 -75zM188 517v-517h-115v517h115z" />
    <glyph glyph-name="j" unicode="j" horiz-adv-x="255" 
d="M207 685c0 -48 -28 -76 -75 -76c-48 0 -75 28 -75 76c0 49 27 76 75 76c47 0 75 -27 75 -76zM25 -223c-41 0 -88 11 -107 23l10 88c20 -8 50 -17 78 -17c39 0 67 19 67 80v566h115v-573c0 -119 -63 -167 -163 -167z" />
    <glyph glyph-name="k" unicode="k" horiz-adv-x="544" 
d="M187 755v-447l201 209h129l-176 -186l189 -331h-126l-149 255l-68 -67v-188h-115v755h115z" />
    <glyph glyph-name="l" unicode="l" horiz-adv-x="257" 
d="M188 755v-755h-115v755h115z" />
    <glyph glyph-name="m" unicode="m" horiz-adv-x="861" 
d="M186 380v-380h-115v517h99l4 -53c47 37 101 64 169 64c67 0 107 -19 130 -67c45 39 102 67 173 67c107 0 150 -58 150 -175v-353h-115v336c0 61 -15 96 -72 96c-40 0 -94 -27 -117 -50c1 -8 1 -18 1 -27v-355h-115v336c0 61 -14 96 -71 96c-42 0 -98 -29 -121 -52z" />
    <glyph glyph-name="n" unicode="n" horiz-adv-x="583" 
d="M517 352v-352h-115v333c0 65 -24 99 -85 99c-51 0 -107 -31 -131 -55v-377h-115v517h102l5 -54c47 37 107 65 179 65c113 0 160 -59 160 -176z" />
    <glyph glyph-name="o" unicode="o" horiz-adv-x="582" 
d="M293 77c80 0 126 52 126 185c0 129 -43 173 -123 173c-83 0 -133 -50 -133 -175c0 -127 39 -183 130 -183zM287 -12c-182 0 -244 113 -244 268c0 166 86 272 257 272s239 -107 239 -260c0 -170 -74 -280 -252 -280z" />
    <glyph glyph-name="p" unicode="p" horiz-adv-x="585" 
d="M186 379v-251c19 -17 67 -46 116 -46c87 0 119 72 119 187c0 120 -36 165 -109 165c-49 0 -98 -28 -126 -55zM72 -212v729h99l6 -55c47 44 105 66 173 66c109 0 191 -68 191 -257c0 -204 -98 -283 -214 -283c-63 0 -108 21 -144 50v-250h-111z" />
    <glyph glyph-name="q" unicode="q" horiz-adv-x="581" 
d="M399 134v257c-23 19 -65 43 -113 43c-89 0 -122 -73 -122 -181c0 -111 33 -172 118 -172c44 0 89 25 117 53zM514 517v-729h-110v261c-43 -39 -90 -61 -161 -61c-117 0 -198 75 -198 263c0 204 107 277 218 277c60 0 109 -18 144 -53l9 42h98z" />
    <glyph glyph-name="r" unicode="r" horiz-adv-x="376" 
d="M367 527v-115c-65 8 -138 -15 -181 -53v-359h-115v517h97l9 -77c41 59 93 88 169 88c7 0 14 -1 21 -1z" />
    <glyph glyph-name="s" unicode="s" horiz-adv-x="493" 
d="M252 528c121 0 175 -57 196 -147l-100 -26c-13 51 -29 87 -98 87c-64 0 -89 -26 -89 -61c0 -48 44 -62 112 -74c89 -16 184 -38 184 -155c0 -107 -86 -164 -213 -164c-125 0 -195 49 -211 146l98 32c14 -49 33 -92 117 -92c57 0 97 18 97 62c0 52 -41 61 -108 74
c-84 16 -184 36 -184 158c0 108 91 160 199 160z" />
    <glyph glyph-name="t" unicode="t" horiz-adv-x="392" 
d="M364 106l19 -82c-27 -17 -81 -36 -137 -36c-103 0 -154 45 -154 156v288h-79v85h79v151l115 16v-167h140v-85h-140v-272c0 -51 13 -78 69 -78c31 0 67 12 88 24z" />
    <glyph glyph-name="u" unicode="u" horiz-adv-x="580" 
d="M70 164v353h115v-333c0 -65 20 -98 81 -98c50 0 106 30 130 54v377h115v-517h-100l-8 57c-45 -41 -105 -68 -177 -68c-108 0 -156 58 -156 175z" />
    <glyph glyph-name="v" unicode="v" horiz-adv-x="517" 
d="M326 0h-133l-191 517h125l135 -404h2l134 404h117z" />
    <glyph glyph-name="w" unicode="w" horiz-adv-x="781" 
d="M297 0h-137l-158 517h116l113 -398h1l104 398h116l104 -396h1l110 396h112l-158 -517h-132l-97 379h-2z" />
    <glyph glyph-name="x" unicode="x" horiz-adv-x="508" 
d="M488 517l-171 -251l179 -266h-124l-125 185l-119 -185h-114l172 264l-173 253h125l117 -177l121 177h112z" />
    <glyph glyph-name="y" unicode="y" horiz-adv-x="502" 
d="M197 -8l-194 525h124l127 -388h1l127 388h118l-216 -583c-43 -115 -87 -157 -180 -157c-39 0 -83 9 -104 20l11 86c23 -8 56 -16 81 -16c35 0 63 18 84 71z" />
    <glyph glyph-name="z" unicode="z" horiz-adv-x="462" 
d="M426 434l-267 -340h279v-94h-409v82l269 345h-265v90h393v-83z" />
    <glyph glyph-name="braceleft" unicode="{" horiz-adv-x="318" 
d="M286 -64v-81h-62c-100 0 -145 42 -145 122c0 63 14 128 14 196c0 57 -25 81 -70 81h-20v76h19c47 0 71 27 71 80c0 67 -14 150 -14 205c0 84 49 122 144 122h63v-83h-31c-43 0 -55 -18 -55 -51c0 -59 14 -136 14 -200c0 -72 -34 -95 -78 -111c44 -16 78 -41 78 -112
c0 -64 -14 -131 -14 -187c0 -35 12 -57 63 -57h23z" />
    <glyph glyph-name="bar" unicode="|" horiz-adv-x="280" 
d="M192 -143h-104v898h104v-898z" />
    <glyph glyph-name="braceright" unicode="}" horiz-adv-x="318" 
d="M32 656v81h62c100 0 145 -42 145 -122c0 -63 -14 -128 -14 -196c0 -57 25 -81 70 -81h20v-76h-19c-47 0 -71 -27 -71 -80c0 -68 14 -149 14 -205c0 -84 -49 -122 -144 -122h-63v83h31c43 0 55 18 55 51c0 59 -14 136 -14 200c0 72 34 95 78 111c-44 16 -78 41 -78 112
c0 64 14 131 14 187c0 35 -12 57 -63 57h-23z" />
    <glyph glyph-name="asciitilde" unicode="~" horiz-adv-x="550" 
d="M153 432c64 0 193 -45 238 -45c24 0 35 9 35 48l67 -3c11 -83 -27 -132 -91 -132s-197 45 -241 45c-23 0 -36 -11 -33 -52l-70 3c-11 87 31 136 95 136z" />
    <glyph glyph-name="exclamdown" unicode="&#xa1;" horiz-adv-x="276" 
d="M68 457c0 47 25 70 75 70c51 0 76 -23 76 -70s-25 -71 -76 -71c-50 0 -75 24 -75 71zM98 324h91l18 -533h-126z" />
    <glyph glyph-name="cent" unicode="&#xa2;" horiz-adv-x="524" 
d="M171 362c0 -84 17 -140 73 -159v304c-43 -15 -73 -56 -73 -145zM244 705h84v-102c88 -13 153 -72 161 -171l-103 -15c-7 52 -23 82 -58 93v-309c37 11 55 38 66 89l96 -18c-15 -97 -78 -151 -162 -164v-108h-84v108c-123 19 -191 115 -191 242c0 144 76 228 191 251v104z
" />
    <glyph glyph-name="sterling" unicode="&#xa3;" horiz-adv-x="574" 
d="M20 93h58c51 47 75 89 75 144c0 27 -7 54 -21 81h-101v88h72c-16 31 -42 75 -42 134c0 116 95 197 236 197c129 0 202 -53 221 -188l-103 -16c-11 68 -32 113 -118 113c-72 0 -119 -31 -119 -103c0 -51 25 -100 44 -137h212v-88h-185c11 -27 16 -52 16 -76
c0 -56 -20 -102 -68 -149h143c80 0 104 34 117 109l98 -18c-13 -125 -76 -184 -207 -184h-328v93z" />
    <glyph glyph-name="yen" unicode="&#xa5;" horiz-adv-x="548" 
d="M531 724l-159 -296h95v-84h-131v-83h131v-84h-131v-177h-115v177h-131v84h131v83h-131v84h91l-163 296h125l137 -262h2l132 262h117z" />
    <glyph glyph-name="section" unicode="&#xa7;" horiz-adv-x="556" 
d="M154 266c0 -81 106 -86 198 -120c36 23 54 51 54 86c0 79 -105 79 -197 117c-35 -23 -55 -50 -55 -83zM45 243c0 60 33 108 93 147c-35 28 -60 68 -60 132c0 121 101 187 222 187c117 0 200 -55 211 -182l-106 -14c-7 69 -33 111 -108 111c-69 0 -107 -35 -107 -87
c0 -157 329 -68 329 -285c0 -57 -36 -109 -93 -148c35 -28 61 -68 61 -131c0 -121 -100 -187 -223 -187s-202 59 -211 186l103 13c7 -69 36 -110 112 -110c68 0 104 33 104 86c0 156 -327 54 -327 282z" />
    <glyph glyph-name="currency" unicode="&#xa4;" 
d="M280 145c79 0 119 60 119 136c0 83 -40 133 -121 133c-80 0 -119 -56 -119 -133c0 -76 36 -136 121 -136zM560 70l-69 -69l-89 89c-35 -23 -77 -35 -126 -35c-55 0 -97 13 -130 36c-10 -12 -81 -82 -89 -90l-65 68l93 92c-19 35 -28 77 -28 120c0 39 10 77 29 112l-91 90
l69 70l87 -87c35 26 79 39 131 39c53 0 97 -12 131 -36l83 83l65 -68l-87 -87c18 -33 27 -71 27 -112c0 -44 -10 -88 -33 -124z" />
    <glyph glyph-name="quotesingle" unicode="'" horiz-adv-x="218" 
d="M163 465h-108v259h108v-259z" />
    <glyph glyph-name="quotedblleft" unicode="&#x201c;" horiz-adv-x="381" 
d="M202 774l-53 -224h-117l84 234zM368 774l-53 -224h-117l84 234z" />
    <glyph glyph-name="guillemotleft" unicode="&#xab;" horiz-adv-x="447" 
d="M403 103h-97l-87 155l89 150h98l-86 -147zM233 103h-97l-87 155l89 150h98l-86 -147z" />
    <glyph glyph-name="guilsinglleft" unicode="&#x2039;" horiz-adv-x="279" 
d="M233 103h-97l-87 155l89 150h98l-86 -147z" />
    <glyph glyph-name="guilsinglright" unicode="&#x203a;" horiz-adv-x="279" 
d="M42 408h98l88 -154l-87 -151h-98l84 151z" />
    <glyph glyph-name="endash" unicode="&#x2013;" horiz-adv-x="500" 
d="M499 238h-499v87h499v-87z" />
    <glyph glyph-name="periodcentered" unicode="&#xb7;" horiz-adv-x="212" 
d="M180 306c0 -47 -25 -70 -74 -70s-74 23 -74 70s25 70 74 70s74 -23 74 -70z" />
    <glyph glyph-name="paragraph" unicode="&#xb6;" horiz-adv-x="578" 
d="M494 724l1 -857h-89v779h-75v-779h-89v380c-137 11 -212 94 -212 230c0 181 126 247 279 247h185z" />
    <glyph glyph-name="bullet" unicode="&#x2022;" horiz-adv-x="419" 
d="M352 280c0 -93 -51 -140 -143 -140s-142 47 -142 140s50 139 142 139s143 -46 143 -139z" />
    <glyph glyph-name="quotedblbase" unicode="&#x201e;" horiz-adv-x="368" 
d="M171 -133l53 224h117l-84 -234zM5 -133l53 224h117l-84 -234z" />
    <glyph glyph-name="quotedblright" unicode="&#x201d;" horiz-adv-x="381" 
d="M29 546l53 224h117l-84 -234zM195 546l53 224h117l-84 -234z" />
    <glyph glyph-name="guillemotright" unicode="&#xbb;" horiz-adv-x="447" 
d="M212 408h98l88 -154l-87 -151h-98l84 151zM42 408h98l88 -154l-87 -151h-98l84 151z" />
    <glyph glyph-name="ellipsis" unicode="&#x2026;" horiz-adv-x="676" 
d="M632 63c0 -50 -26 -75 -78 -75s-78 25 -78 75c0 51 26 76 78 76s78 -25 78 -76zM200 63c0 -50 -26 -75 -78 -75s-78 25 -78 75c0 51 26 76 78 76s78 -25 78 -76zM414 63c0 -50 -26 -75 -78 -75s-78 25 -78 75c0 51 26 76 78 76s78 -25 78 -76z" />
    <glyph glyph-name="questiondown" unicode="&#xbf;" horiz-adv-x="502" 
d="M225 457c0 47 25 70 76 70s76 -23 76 -70s-25 -71 -76 -71s-76 24 -76 71zM243 324h112v-180c-103 -8 -205 -40 -205 -151c0 -79 46 -107 109 -107c65 0 108 27 124 110l109 -18c-16 -107 -88 -193 -240 -193c-116 0 -223 48 -223 203c0 133 87 203 214 229v107z" />
    <glyph glyph-name="grave" unicode="`" horiz-adv-x="500" 
d="M260 572l-138 174h130l88 -164z" />
    <glyph glyph-name="acute" unicode="&#xb4;" horiz-adv-x="500" 
d="M378 746l-138 -174l-80 10l88 164h130z" />
    <glyph glyph-name="tilde" unicode="&#x2dc;" horiz-adv-x="500" 
d="M173 722c64 0 105 -45 150 -45c24 0 34 9 34 49l64 -4c11 -83 -26 -129 -87 -129c-64 0 -110 46 -153 46c-23 0 -36 -11 -33 -52l-66 3c-11 86 34 132 91 132z" />
    <glyph glyph-name="macron" unicode="&#xaf;" horiz-adv-x="500" 
d="M399 616h-299v83h299v-83z" />
    <glyph glyph-name="dieresis" unicode="&#xa8;" horiz-adv-x="500" 
d="M434 675c0 -44 -30 -71 -73 -71c-45 0 -74 27 -74 71c0 43 29 70 74 70c43 0 73 -27 73 -70zM214 675c0 -44 -30 -71 -73 -71c-44 0 -74 27 -74 71c0 43 30 70 74 70c43 0 73 -27 73 -70z" />
    <glyph glyph-name="cedilla" unicode="&#xb8;" horiz-adv-x="500" 
d="M134 -214l17 59c15 -7 32 -11 52 -11c33 0 50 14 50 41c0 32 -22 42 -70 43l16 112l63 -8l-9 -60c42 -8 81 -30 81 -89c0 -67 -50 -105 -118 -105c-35 0 -63 9 -82 18z" />
    <glyph glyph-name="emdash" unicode="&#x2014;" horiz-adv-x="1000" 
d="M999 238h-999v87h999v-87z" />
    <glyph glyph-name="AE" unicode="&#xc6;" horiz-adv-x="1001" 
d="M503 400v226h-41l-121 -226h162zM621 307v-209h335v-98h-453v305h-201l-159 -305h-120l378 724h540v-98h-320v-223h301v-96h-301z" />
    <glyph glyph-name="ordfeminine" unicode="&#xaa;" horiz-adv-x="385" 
d="M237 364v57c-8 1 -19 1 -30 1c-36 0 -80 -9 -80 -46c0 -19 7 -38 43 -38c27 0 52 13 67 26zM326 506v-142c0 -27 11 -30 35 -26l3 -53c-15 -7 -34 -12 -54 -12c-39 0 -63 19 -67 42c-23 -25 -58 -43 -107 -43c-88 0 -103 60 -103 94c0 96 93 112 169 112c12 0 23 0 34 -1
v17c0 39 -8 62 -55 62c-39 0 -52 -14 -59 -49l-77 13c11 64 52 103 144 103s137 -33 137 -117z" />
    <glyph glyph-name="Oslash" unicode="&#xd8;" horiz-adv-x="760" 
d="M166 362c0 -103 25 -174 68 -218l202 486c-17 3 -33 5 -49 5c-131 0 -221 -88 -221 -273zM380 88c125 0 215 82 215 277c0 100 -24 171 -67 215l-202 -486c17 -4 35 -6 54 -6zM375 -12c-32 0 -62 3 -90 9l-28 -69h-113l45 107c-100 63 -144 180 -144 325
c0 216 118 377 345 377c31 0 60 -3 87 -10l28 67h112l-44 -106c97 -63 142 -178 142 -313c0 -235 -112 -387 -340 -387z" />
    <glyph glyph-name="ordmasculine" unicode="&#xba;" horiz-adv-x="406" 
d="M202 346c48 0 77 28 77 104s-24 100 -73 100c-51 0 -79 -30 -79 -101s20 -103 75 -103zM199 272c-123 0 -169 74 -169 175c0 108 58 176 179 176c120 0 166 -70 166 -169c0 -109 -51 -182 -176 -182z" />
    <glyph glyph-name="ae" unicode="&#xe6;" horiz-adv-x="851" 
d="M470 309h217c3 89 -31 129 -100 129c-59 0 -114 -40 -117 -129zM242 73c47 0 96 21 129 56c-11 31 -15 64 -18 101h-48c-78 -1 -141 -20 -141 -87c0 -37 18 -70 78 -70zM591 -12c-93 0 -151 29 -188 78c-56 -57 -130 -78 -201 -78c-130 0 -155 88 -155 140
c0 134 103 173 250 178c16 0 41 -1 56 -2v34c0 64 -15 103 -91 103c-63 0 -88 -25 -97 -80l-98 18c15 99 81 149 198 149c89 0 131 -25 158 -80c41 52 104 80 180 80c141 0 203 -96 203 -231c0 -19 0 -49 -3 -68h-335c3 -116 55 -146 130 -146c65 0 94 30 107 83l99 -23
c-21 -99 -100 -155 -213 -155z" />
    <glyph glyph-name="oslash" unicode="&#xf8;" horiz-adv-x="582" 
d="M163 260c0 -50 6 -89 19 -117l129 291c-5 0 -10 1 -15 1c-83 0 -133 -50 -133 -175zM293 77c80 0 126 52 126 185c0 55 -8 97 -24 124l-135 -306c10 -2 21 -3 33 -3zM287 -12c-23 0 -45 2 -65 6l-29 -66h-106l45 102c-64 47 -89 127 -89 226c0 166 86 272 257 272
c19 0 35 -1 51 -4l27 62h105l-42 -94c68 -43 98 -124 98 -224c0 -170 -74 -280 -252 -280z" />
    <glyph glyph-name="germandbls" unicode="&#xdf;" horiz-adv-x="660" 
d="M186 0h-115v528c0 177 106 239 250 239c151 0 233 -66 233 -185c0 -96 -58 -146 -114 -167v-4c96 -19 175 -66 175 -204c0 -122 -71 -218 -214 -218c-114 0 -166 58 -184 127l87 37c16 -39 38 -76 94 -76c64 0 99 40 99 132c0 114 -74 147 -164 147h-39v83h16
c96 0 128 60 128 123c0 87 -46 120 -121 120c-81 0 -131 -31 -131 -152v-530z" />
    <glyph glyph-name="onesuperior" unicode="&#xb9;" horiz-adv-x="305" 
d="M238 347h-103v334c-21 -10 -78 -18 -99 -18l-5 80c57 4 105 20 136 52h71v-448z" />
    <glyph glyph-name="logicalnot" unicode="&#xac;" 
d="M472 182h-93v94h-288v98h381v-192z" />
    <glyph glyph-name="mu" unicode="&#xb5;" horiz-adv-x="629" 
d="M93 -176v693h115v-333c0 -71 15 -101 71 -101c55 0 106 36 135 68v366h115v-517h-98l-4 62h-2c-40 -37 -94 -69 -153 -69c-23 0 -46 5 -68 16l-2 -1l9 -184h-118z" />
    <glyph glyph-name="trademark" unicode="&#x2122;" horiz-adv-x="842" 
d="M225 665v-317h-69v317h-124v59h318v-59h-125zM776 348h-62v256l-100 -256h-53l-97 257v-257h-63v376h80l109 -292l112 292h74v-376z" />
    <glyph glyph-name="Eth" unicode="&#xd0;" horiz-adv-x="726" 
d="M204 95h100c179 0 257 99 257 267c0 205 -89 267 -248 267h-109v-211h196v-91h-196v-232zM305 0h-218v327h-73v91h73v306h235c251 0 359 -135 359 -351c0 -222 -117 -373 -376 -373z" />
    <glyph glyph-name="onehalf" unicode="&#xbd;" horiz-adv-x="945" 
d="M735 456c96 0 144 -44 144 -116c0 -69 -47 -109 -123 -193l-54 -59v-3h184v-85h-302v84l100 107c66 71 92 101 92 143c0 32 -19 45 -50 45c-39 0 -55 -23 -62 -64l-88 13c11 91 76 128 159 128zM267 279h-103v334c-21 -10 -78 -18 -99 -18l-5 80c57 4 105 20 136 52h71
v-448zM315 -12h-107l356 736h105z" />
    <glyph glyph-name="plusminus" unicode="&#xb1;" 
d="M333 139h-98v135h-141v97h141v145h98v-145h142v-97h-142v-135zM475 0h-381v97h381v-97z" />
    <glyph glyph-name="Thorn" unicode="&#xde;" horiz-adv-x="618" 
d="M203 238h87c94 0 169 20 169 141c0 95 -56 127 -156 127h-100v-268zM203 141v-141h-116v724h118v-122h134c185 0 241 -105 241 -215c0 -171 -100 -246 -280 -246h-97z" />
    <glyph glyph-name="onequarter" unicode="&#xbc;" horiz-adv-x="945" 
d="M619 177h120v183zM838 0h-100v98h-208v70l183 280h125v-271h52v-79h-52v-98zM261 279h-103v334c-21 -10 -78 -18 -99 -18l-5 80c57 4 105 20 136 52h71v-448zM325 -12h-107l356 736h105z" />
    <glyph glyph-name="divide" unicode="&#xf7;" 
d="M350 481c0 -44 -23 -66 -70 -66s-70 22 -70 66c0 41 23 67 70 67s70 -26 70 -67zM475 272h-381v98h381v-98zM350 161c0 -43 -23 -66 -70 -66s-70 22 -70 66c0 41 23 67 70 67s70 -26 70 -67z" />
    <glyph glyph-name="brokenbar" unicode="&#xa6;" horiz-adv-x="280" 
d="M192 414h-104v341h104v-341zM192 -143h-104v388h104v-388z" />
    <glyph glyph-name="degree" unicode="&#xb0;" horiz-adv-x="291" 
d="M260 635c0 -71 -46 -115 -114 -115c-69 0 -115 44 -115 112c0 75 51 116 115 116c65 0 114 -41 114 -113zM146 579c32 0 52 23 52 56c0 35 -21 55 -52 55s-53 -21 -53 -58c0 -32 20 -53 53 -53z" />
    <glyph glyph-name="thorn" unicode="&#xfe;" horiz-adv-x="586" 
d="M72 -212v967h113v-288c44 40 95 61 166 61c109 0 191 -68 191 -257c0 -204 -98 -283 -214 -283c-63 0 -108 21 -144 50v-250h-112zM187 379v-251c19 -17 67 -46 116 -46c87 0 119 72 119 187c0 119 -35 165 -111 165c-49 0 -97 -31 -124 -55z" />
    <glyph glyph-name="threequarters" unicode="&#xbe;" horiz-adv-x="945" 
d="M45 390l90 16c7 -37 22 -56 63 -56c36 0 64 19 64 63c0 47 -25 63 -72 63h-47v70h30c55 0 83 28 83 68c0 28 -12 47 -51 47s-54 -18 -62 -53l-87 17c16 85 85 112 159 112c92 0 142 -39 142 -107c0 -62 -44 -95 -87 -108v-2c63 -13 96 -46 96 -110
c0 -85 -69 -136 -166 -136c-74 0 -144 29 -155 116zM637 177h120v183zM856 0h-100v98h-208v70l183 280h125v-271h52v-79h-52v-98zM359 -12h-107l356 736h105z" />
    <glyph glyph-name="twosuperior" unicode="&#xb2;" horiz-adv-x="393" 
d="M199 805c96 0 144 -44 144 -116c0 -69 -47 -109 -123 -193l-54 -59v-3h184v-85h-302v84l100 107c66 71 92 101 92 143c0 32 -19 45 -50 45c-39 0 -55 -23 -62 -64l-88 13c11 91 76 128 159 128z" />
    <glyph glyph-name="registered" unicode="&#xae;" horiz-adv-x="457" 
d="M208 488h14c23 0 38 5 38 28c0 20 -14 25 -33 25h-19v-53zM269 468l51 -85h-46l-44 73h-22v-73h-42v190h69c55 0 69 -26 69 -55c0 -27 -15 -41 -35 -50zM372 474c0 93 -60 142 -143 142c-80 0 -143 -54 -143 -145c0 -88 55 -140 143 -140s143 54 143 143zM417 477
c0 -113 -77 -189 -189 -189c-124 0 -188 78 -188 181c0 118 85 190 189 190c117 0 188 -71 188 -182z" />
    <glyph glyph-name="eth" unicode="&#xf0;" horiz-adv-x="581" 
d="M160 249c0 -100 33 -172 125 -172c104 0 136 95 136 230c0 21 -1 42 -4 65c-27 27 -74 48 -126 48c-84 0 -131 -54 -131 -171zM41 245c0 144 75 264 225 264c48 0 92 -12 133 -35l4 3c-15 47 -37 86 -72 119l-91 -51l-44 70l73 41c-35 19 -86 31 -126 38l39 78
c68 -10 126 -31 174 -64l98 59l50 -75l-77 -44c79 -88 108 -205 108 -332c0 -172 -58 -328 -255 -328c-163 0 -239 106 -239 257z" />
    <glyph glyph-name="multiply" unicode="&#xd7;" 
d="M387 147l-103 103l-102 -103l-69 71l103 103l-103 103l69 71l102 -103l103 103l69 -71l-103 -103l103 -103z" />
    <glyph glyph-name="threesuperior" unicode="&#xb3;" horiz-adv-x="384" 
d="M31 458l90 16c7 -37 22 -56 63 -56c36 0 64 19 64 63c0 47 -25 63 -72 63h-47v70h30c55 0 83 28 83 68c0 28 -12 47 -51 47s-54 -18 -62 -53l-87 17c16 85 85 112 159 112c92 0 142 -39 142 -107c0 -62 -44 -95 -87 -108v-2c63 -13 96 -46 96 -110
c0 -85 -69 -136 -166 -136c-74 0 -144 29 -155 116z" />
    <glyph glyph-name="copyright" unicode="&#xa9;" horiz-adv-x="784" 
d="M491 270l61 -10c-13 -104 -96 -129 -155 -129c-129 0 -180 83 -180 195c0 113 65 194 182 194c77 0 144 -37 149 -130l-65 -8c-5 53 -33 80 -86 80c-59 0 -107 -38 -107 -138c0 -72 29 -135 105 -135c61 0 85 30 96 81zM393 52c169 0 272 104 272 274
c0 176 -112 270 -272 270c-156 0 -273 -102 -273 -278c0 -167 101 -266 273 -266zM734 332c0 -205 -139 -344 -343 -344c-227 0 -342 142 -342 329c0 215 154 343 344 343c212 0 341 -129 341 -328z" />
    <glyph glyph-name="Aacute" unicode="&#xc1;" horiz-adv-x="696" 
d="M490 915l-142 -148l-84 11l96 137h130zM448 296l-105 320h-2l-106 -320h213zM268 724h149l254 -724h-128l-68 198h-263l-66 -198h-119z" />
    <glyph glyph-name="Acircumflex" unicode="&#xc2;" horiz-adv-x="696" 
d="M423 769l-79 76l-81 -78l-82 9l112 133h103l110 -133zM448 296l-105 320h-2l-106 -320h213zM268 724h149l254 -724h-128l-68 198h-263l-66 -198h-119z" />
    <glyph glyph-name="Adieresis" unicode="&#xc4;" horiz-adv-x="696" 
d="M527 848c0 -44 -30 -70 -73 -70c-45 0 -74 26 -74 70c0 43 29 70 74 70c43 0 73 -27 73 -70zM307 848c0 -44 -30 -70 -73 -70c-44 0 -74 26 -74 70c0 43 30 70 74 70c43 0 73 -27 73 -70zM448 296l-105 320h-2l-106 -320h213zM268 724h149l254 -724h-128l-68 198h-263
l-66 -198h-119z" />
    <glyph glyph-name="Agrave" unicode="&#xc0;" horiz-adv-x="696" 
d="M338 767l-142 148h131l95 -137zM448 296l-105 320h-2l-106 -320h213zM268 724h149l254 -724h-128l-68 198h-263l-66 -198h-119z" />
    <glyph glyph-name="Aring" unicode="&#xc5;" horiz-adv-x="696" 
d="M343 749c35 0 52 19 52 54c0 33 -19 50 -51 50c-31 0 -53 -18 -53 -53c0 -33 20 -51 52 -51zM448 296l-105 320h-2l-106 -320h213zM459 801c0 -38 -13 -67 -39 -87l251 -714h-128l-68 198h-263l-66 -198h-119l238 716c-24 19 -36 46 -36 81c0 75 54 111 115 111
c63 0 115 -34 115 -107z" />
    <glyph glyph-name="Atilde" unicode="&#xc3;" horiz-adv-x="696" 
d="M268 915c64 0 105 -45 150 -45c24 0 34 9 34 48l64 -3c11 -83 -26 -129 -87 -129c-64 0 -110 45 -153 45c-23 0 -36 -10 -33 -51l-66 3c-11 87 32 132 91 132zM448 296l-105 320h-2l-106 -320h213zM268 724h149l254 -724h-128l-68 198h-263l-66 -198h-119z" />
    <glyph glyph-name="Ccedilla" unicode="&#xc7;" horiz-adv-x="693" 
d="M274 -214l17 59c15 -7 32 -11 52 -11c33 0 50 14 50 41c0 32 -22 42 -70 43l10 72c-206 13 -288 155 -288 362c0 238 126 385 342 385c155 0 265 -79 276 -253l-108 -10c-12 109 -61 162 -169 162c-137 0 -221 -87 -221 -276c0 -196 76 -273 211 -273
c108 0 158 52 179 144l104 -20c-24 -153 -143 -214 -262 -222l-4 -27c42 -8 81 -30 81 -89c0 -67 -50 -105 -118 -105c-35 0 -63 9 -82 18z" />
    <glyph glyph-name="Eacute" unicode="&#xc9;" horiz-adv-x="578" 
d="M462 915l-142 -148l-84 11l96 137h130zM204 315v-217h336v-98h-453v724h438v-98h-321v-214h301v-97h-301z" />
    <glyph glyph-name="Ecircumflex" unicode="&#xca;" horiz-adv-x="578" 
d="M387 769l-79 76l-81 -78l-82 9l112 133h103l110 -133zM204 315v-217h336v-98h-453v724h438v-98h-321v-214h301v-97h-301z" />
    <glyph glyph-name="Edieresis" unicode="&#xcb;" horiz-adv-x="578" 
d="M491 848c0 -44 -30 -70 -73 -70c-45 0 -74 26 -74 70c0 43 29 70 74 70c43 0 73 -27 73 -70zM271 848c0 -44 -30 -70 -73 -70c-44 0 -74 26 -74 70c0 43 30 70 74 70c43 0 73 -27 73 -70zM204 315v-217h336v-98h-453v724h438v-98h-321v-214h301v-97h-301z" />
    <glyph glyph-name="Egrave" unicode="&#xc8;" horiz-adv-x="578" 
d="M302 767l-142 148h131l95 -137zM204 315v-217h336v-98h-453v724h438v-98h-321v-214h301v-97h-301z" />
    <glyph glyph-name="Iacute" unicode="&#xcd;" horiz-adv-x="291" 
d="M292 915l-142 -148l-84 11l96 137h130zM204 724v-724h-117v724h117z" />
    <glyph glyph-name="Icircumflex" unicode="&#xce;" horiz-adv-x="291" 
d="M225 769l-79 76l-81 -78l-82 9l112 133h103l110 -133zM204 724v-724h-117v724h117z" />
    <glyph glyph-name="Idieresis" unicode="&#xcf;" horiz-adv-x="291" 
d="M329 848c0 -44 -30 -70 -73 -70c-45 0 -74 26 -74 70c0 43 29 70 74 70c43 0 73 -27 73 -70zM109 848c0 -44 -30 -70 -73 -70c-44 0 -74 26 -74 70c0 43 30 70 74 70c43 0 73 -27 73 -70zM204 724v-724h-117v724h117z" />
    <glyph glyph-name="Igrave" unicode="&#xcc;" horiz-adv-x="291" 
d="M140 767l-142 148h131l95 -137zM204 724v-724h-117v724h117z" />
    <glyph glyph-name="Ntilde" unicode="&#xd1;" horiz-adv-x="745" 
d="M306 915c64 0 105 -45 150 -45c24 0 34 9 34 48l64 -3c11 -83 -26 -129 -87 -129c-64 0 -110 45 -153 45c-23 0 -36 -10 -33 -51l-66 3c-11 87 32 132 91 132zM658 0h-138l-325 569v-569h-108v724h147l317 -566v566h107v-724z" />
    <glyph glyph-name="Oacute" unicode="&#xd3;" horiz-adv-x="760" 
d="M526 915l-142 -148l-84 11l96 137h130zM380 88c125 0 215 82 215 277c0 184 -81 270 -208 270c-131 0 -221 -88 -221 -273c0 -188 86 -274 214 -274zM375 -12c-230 0 -330 155 -330 372c0 216 118 377 345 377c226 0 325 -162 325 -362c0 -235 -112 -387 -340 -387z" />
    <glyph glyph-name="Ocircumflex" unicode="&#xd4;" horiz-adv-x="760" 
d="M468 769l-79 76l-81 -78l-82 9l112 133h103l110 -133zM380 88c125 0 215 82 215 277c0 184 -81 270 -208 270c-131 0 -221 -88 -221 -273c0 -188 86 -274 214 -274zM375 -12c-230 0 -330 155 -330 372c0 216 118 377 345 377c226 0 325 -162 325 -362
c0 -235 -112 -387 -340 -387z" />
    <glyph glyph-name="Odieresis" unicode="&#xd6;" horiz-adv-x="760" 
d="M572 848c0 -44 -30 -70 -73 -70c-45 0 -74 26 -74 70c0 43 29 70 74 70c43 0 73 -27 73 -70zM352 848c0 -44 -30 -70 -73 -70c-44 0 -74 26 -74 70c0 43 30 70 74 70c43 0 73 -27 73 -70zM380 88c125 0 215 82 215 277c0 184 -81 270 -208 270c-131 0 -221 -88 -221 -273
c0 -188 86 -274 214 -274zM375 -12c-230 0 -330 155 -330 372c0 216 118 377 345 377c226 0 325 -162 325 -362c0 -235 -112 -387 -340 -387z" />
    <glyph glyph-name="Ograve" unicode="&#xd2;" horiz-adv-x="760" 
d="M392 767l-142 148h131l95 -137zM380 88c125 0 215 82 215 277c0 184 -81 270 -208 270c-131 0 -221 -88 -221 -273c0 -188 86 -274 214 -274zM375 -12c-230 0 -330 155 -330 372c0 216 118 377 345 377c226 0 325 -162 325 -362c0 -235 -112 -387 -340 -387z" />
    <glyph glyph-name="Otilde" unicode="&#xd5;" horiz-adv-x="760" 
d="M313 915c64 0 105 -45 150 -45c24 0 34 9 34 48l64 -3c11 -83 -26 -129 -87 -129c-64 0 -110 45 -153 45c-23 0 -36 -10 -33 -51l-66 3c-11 87 32 132 91 132zM380 88c125 0 215 82 215 277c0 184 -81 270 -208 270c-131 0 -221 -88 -221 -273c0 -188 86 -274 214 -274z
M375 -12c-230 0 -330 155 -330 372c0 216 118 377 345 377c226 0 325 -162 325 -362c0 -235 -112 -387 -340 -387z" />
    <glyph glyph-name="Uacute" unicode="&#xda;" horiz-adv-x="711" 
d="M513 915l-142 -148l-84 11l96 137h130zM357 86c111 0 157 48 157 176v462h117v-474c0 -181 -107 -262 -280 -262c-191 0 -271 88 -271 265v471h117v-459c0 -127 47 -179 160 -179z" />
    <glyph glyph-name="Ucircumflex" unicode="&#xdb;" horiz-adv-x="711" 
d="M435 769l-79 76l-81 -78l-82 9l112 133h103l110 -133zM357 86c111 0 157 48 157 176v462h117v-474c0 -181 -107 -262 -280 -262c-191 0 -271 88 -271 265v471h117v-459c0 -127 47 -179 160 -179z" />
    <glyph glyph-name="Udieresis" unicode="&#xdc;" horiz-adv-x="711" 
d="M539 848c0 -44 -30 -70 -73 -70c-45 0 -74 26 -74 70c0 43 29 70 74 70c43 0 73 -27 73 -70zM319 848c0 -44 -30 -70 -73 -70c-44 0 -74 26 -74 70c0 43 30 70 74 70c43 0 73 -27 73 -70zM357 86c111 0 157 48 157 176v462h117v-474c0 -181 -107 -262 -280 -262
c-191 0 -271 88 -271 265v471h117v-459c0 -127 47 -179 160 -179z" />
    <glyph glyph-name="Ugrave" unicode="&#xd9;" horiz-adv-x="711" 
d="M351 767l-142 148h131l95 -137zM357 86c111 0 157 48 157 176v462h117v-474c0 -181 -107 -262 -280 -262c-191 0 -271 88 -271 265v471h117v-459c0 -127 47 -179 160 -179z" />
    <glyph glyph-name="Yacute" unicode="&#xdd;" horiz-adv-x="582" 
d="M442 915l-142 -148l-84 11l96 137h130zM355 279l1 -279h-118v277l-248 447h128l180 -336h2l174 336h118z" />
    <glyph glyph-name="aacute" unicode="&#xe1;" horiz-adv-x="550" 
d="M399 746l-138 -174l-80 10l88 164h130zM354 122v102c-11 1 -21 2 -48 2c-59 0 -142 -7 -142 -83c0 -36 16 -69 77 -69c47 0 90 24 113 48zM466 348v-239c0 -28 4 -40 31 -40c7 0 18 2 31 6l4 -68c-20 -11 -53 -17 -81 -17c-55 0 -78 21 -87 61c-35 -39 -92 -63 -164 -63
c-131 0 -153 88 -153 139c0 133 114 178 253 178c24 0 38 -1 53 -2v39c0 63 -14 99 -90 99c-63 0 -84 -27 -95 -80l-101 18c16 97 77 149 205 149c133 0 194 -51 194 -180z" />
    <glyph glyph-name="acircumflex" unicode="&#xe2;" horiz-adv-x="550" 
d="M435 582l-81 -5l-83 105l-83 -107l-82 7l109 165h111zM354 122v102c-11 1 -21 2 -48 2c-59 0 -142 -7 -142 -83c0 -36 16 -69 77 -69c47 0 90 24 113 48zM466 348v-239c0 -28 4 -40 31 -40c7 0 18 2 31 6l4 -68c-20 -11 -53 -17 -81 -17c-55 0 -78 21 -87 61
c-35 -39 -92 -63 -164 -63c-131 0 -153 88 -153 139c0 133 114 178 253 178c24 0 38 -1 53 -2v39c0 63 -14 99 -90 99c-63 0 -84 -27 -95 -80l-101 18c16 97 77 149 205 149c133 0 194 -51 194 -180z" />
    <glyph glyph-name="adieresis" unicode="&#xe4;" horiz-adv-x="550" 
d="M455 675c0 -44 -30 -71 -73 -71c-45 0 -74 27 -74 71c0 43 29 70 74 70c43 0 73 -27 73 -70zM235 675c0 -44 -30 -71 -73 -71c-44 0 -74 27 -74 71c0 43 30 70 74 70c43 0 73 -27 73 -70zM354 122v102c-11 1 -21 2 -48 2c-59 0 -142 -7 -142 -83c0 -36 16 -69 77 -69
c47 0 90 24 113 48zM466 348v-239c0 -28 4 -40 31 -40c7 0 18 2 31 6l4 -68c-20 -11 -53 -17 -81 -17c-55 0 -78 21 -87 61c-35 -39 -92 -63 -164 -63c-131 0 -153 88 -153 139c0 133 114 178 253 178c24 0 38 -1 53 -2v39c0 63 -14 99 -90 99c-63 0 -84 -27 -95 -80
l-101 18c16 97 77 149 205 149c133 0 194 -51 194 -180z" />
    <glyph glyph-name="agrave" unicode="&#xe0;" horiz-adv-x="550" 
d="M281 572l-138 174h130l88 -164zM354 122v102c-11 1 -21 2 -48 2c-59 0 -142 -7 -142 -83c0 -36 16 -69 77 -69c47 0 90 24 113 48zM466 348v-239c0 -28 4 -40 31 -40c7 0 18 2 31 6l4 -68c-20 -11 -53 -17 -81 -17c-55 0 -78 21 -87 61c-35 -39 -92 -63 -164 -63
c-131 0 -153 88 -153 139c0 133 114 178 253 178c24 0 38 -1 53 -2v39c0 63 -14 99 -90 99c-63 0 -84 -27 -95 -80l-101 18c16 97 77 149 205 149c133 0 194 -51 194 -180z" />
    <glyph glyph-name="aring" unicode="&#xe5;" horiz-adv-x="550" 
d="M270 626c31 0 47 17 47 48s-15 46 -46 46c-28 0 -48 -16 -48 -47s16 -47 47 -47zM380 674c0 -65 -44 -102 -109 -102s-109 35 -109 98c0 70 51 106 109 106c60 0 109 -33 109 -102zM354 122v102c-11 1 -21 2 -48 2c-59 0 -142 -7 -142 -83c0 -36 16 -69 77 -69
c47 0 90 24 113 48zM466 348v-239c0 -28 4 -40 31 -40c7 0 18 2 31 6l4 -68c-20 -11 -53 -17 -81 -17c-55 0 -78 21 -87 61c-35 -39 -92 -63 -164 -63c-131 0 -153 88 -153 139c0 133 114 178 253 178c24 0 38 -1 53 -2v39c0 63 -14 99 -90 99c-63 0 -84 -27 -95 -80
l-101 18c16 97 77 149 205 149c133 0 194 -51 194 -180z" />
    <glyph glyph-name="atilde" unicode="&#xe3;" horiz-adv-x="550" 
d="M194 722c64 0 105 -45 150 -45c24 0 34 9 34 49l64 -4c11 -83 -26 -129 -87 -129c-64 0 -110 46 -153 46c-23 0 -36 -11 -33 -52l-66 3c-11 86 34 132 91 132zM354 122v102c-11 1 -21 2 -48 2c-59 0 -142 -7 -142 -83c0 -36 16 -69 77 -69c47 0 90 24 113 48zM466 348
v-239c0 -28 4 -40 31 -40c7 0 18 2 31 6l4 -68c-20 -11 -53 -17 -81 -17c-55 0 -78 21 -87 61c-35 -39 -92 -63 -164 -63c-131 0 -153 88 -153 139c0 133 114 178 253 178c24 0 38 -1 53 -2v39c0 63 -14 99 -90 99c-63 0 -84 -27 -95 -80l-101 18c16 97 77 149 205 149
c133 0 194 -51 194 -180z" />
    <glyph glyph-name="ccedilla" unicode="&#xe7;" horiz-adv-x="541" 
d="M187 -214l17 59c15 -7 32 -11 52 -11c33 0 50 14 50 41c0 32 -22 42 -70 43l10 72c-143 16 -203 120 -203 262c0 180 93 276 256 276c115 0 195 -66 204 -189l-106 -15c-8 68 -35 112 -103 112c-67 0 -131 -34 -131 -171c0 -140 56 -183 128 -183c64 0 102 31 114 103
l100 -20c-16 -116 -96 -168 -195 -176l-4 -27c42 -8 81 -30 81 -89c0 -67 -50 -105 -118 -105c-35 0 -63 9 -82 18z" />
    <glyph glyph-name="eacute" unicode="&#xe9;" horiz-adv-x="547" 
d="M413 746l-138 -174l-80 10l88 164h130zM166 310h217c0 88 -31 127 -100 127c-58 0 -112 -35 -117 -127zM287 -12c-186 0 -244 128 -244 270c0 187 112 270 247 270c150 0 212 -96 212 -229c0 -22 -1 -45 -3 -69h-335c3 -108 55 -148 130 -148c67 0 94 31 106 84l98 -24
c-20 -99 -98 -154 -211 -154z" />
    <glyph glyph-name="ecircumflex" unicode="&#xea;" horiz-adv-x="547" 
d="M449 582l-81 -5l-83 105l-83 -107l-82 7l109 165h111zM166 310h217c0 88 -31 127 -100 127c-58 0 -112 -35 -117 -127zM287 -12c-186 0 -244 128 -244 270c0 187 112 270 247 270c150 0 212 -96 212 -229c0 -22 -1 -45 -3 -69h-335c3 -108 55 -148 130 -148
c67 0 94 31 106 84l98 -24c-20 -99 -98 -154 -211 -154z" />
    <glyph glyph-name="edieresis" unicode="&#xeb;" horiz-adv-x="547" 
d="M469 675c0 -44 -30 -71 -73 -71c-45 0 -74 27 -74 71c0 43 29 70 74 70c43 0 73 -27 73 -70zM249 675c0 -44 -30 -71 -73 -71c-44 0 -74 27 -74 71c0 43 30 70 74 70c43 0 73 -27 73 -70zM166 310h217c0 88 -31 127 -100 127c-58 0 -112 -35 -117 -127zM287 -12
c-186 0 -244 128 -244 270c0 187 112 270 247 270c150 0 212 -96 212 -229c0 -22 -1 -45 -3 -69h-335c3 -108 55 -148 130 -148c67 0 94 31 106 84l98 -24c-20 -99 -98 -154 -211 -154z" />
    <glyph glyph-name="egrave" unicode="&#xe8;" horiz-adv-x="547" 
d="M295 572l-138 174h130l88 -164zM166 310h217c0 88 -31 127 -100 127c-58 0 -112 -35 -117 -127zM287 -12c-186 0 -244 128 -244 270c0 187 112 270 247 270c150 0 212 -96 212 -229c0 -22 -1 -45 -3 -69h-335c3 -108 55 -148 130 -148c67 0 94 31 106 84l98 -24
c-20 -99 -98 -154 -211 -154z" />
    <glyph glyph-name="iacute" unicode="&#xed;" horiz-adv-x="257" 
d="M273 746l-138 -174l-80 10l88 164h130zM188 517v-517h-115v517h115z" />
    <glyph glyph-name="icircumflex" unicode="&#xee;" horiz-adv-x="257" 
d="M294 582l-81 -5l-83 105l-83 -107l-82 7l109 165h111zM188 517v-517h-115v517h115z" />
    <glyph glyph-name="idieresis" unicode="&#xef;" horiz-adv-x="257" 
d="M314 675c0 -44 -30 -71 -73 -71c-45 0 -74 27 -74 71c0 43 29 70 74 70c43 0 73 -27 73 -70zM94 675c0 -44 -30 -71 -73 -71c-44 0 -74 27 -74 71c0 43 30 70 74 70c43 0 73 -27 73 -70zM188 517v-517h-115v517h115z" />
    <glyph glyph-name="igrave" unicode="&#xec;" horiz-adv-x="257" 
d="M130 572l-138 174h130l88 -164zM188 517v-517h-115v517h115z" />
    <glyph glyph-name="ntilde" unicode="&#xf1;" horiz-adv-x="583" 
d="M217 722c64 0 105 -45 150 -45c24 0 34 9 34 49l64 -4c11 -83 -26 -129 -87 -129c-64 0 -110 46 -153 46c-23 0 -36 -11 -33 -52l-66 3c-11 86 34 132 91 132zM517 352v-352h-115v333c0 65 -24 99 -85 99c-51 0 -107 -31 -131 -55v-377h-115v517h102l5 -54
c47 37 107 65 179 65c113 0 160 -59 160 -176z" />
    <glyph glyph-name="oacute" unicode="&#xf3;" horiz-adv-x="582" 
d="M425 746l-138 -174l-80 10l88 164h130zM293 77c80 0 126 52 126 185c0 129 -43 173 -123 173c-83 0 -133 -50 -133 -175c0 -127 39 -183 130 -183zM287 -12c-182 0 -244 113 -244 268c0 166 86 272 257 272s239 -107 239 -260c0 -170 -74 -280 -252 -280z" />
    <glyph glyph-name="ocircumflex" unicode="&#xf4;" horiz-adv-x="582" 
d="M461 582l-81 -5l-83 105l-83 -107l-82 7l109 165h111zM293 77c80 0 126 52 126 185c0 129 -43 173 -123 173c-83 0 -133 -50 -133 -175c0 -127 39 -183 130 -183zM287 -12c-182 0 -244 113 -244 268c0 166 86 272 257 272s239 -107 239 -260c0 -170 -74 -280 -252 -280z
" />
    <glyph glyph-name="odieresis" unicode="&#xf6;" horiz-adv-x="582" 
d="M481 675c0 -44 -30 -71 -73 -71c-45 0 -74 27 -74 71c0 43 29 70 74 70c43 0 73 -27 73 -70zM261 675c0 -44 -30 -71 -73 -71c-44 0 -74 27 -74 71c0 43 30 70 74 70c43 0 73 -27 73 -70zM293 77c80 0 126 52 126 185c0 129 -43 173 -123 173c-83 0 -133 -50 -133 -175
c0 -127 39 -183 130 -183zM287 -12c-182 0 -244 113 -244 268c0 166 86 272 257 272s239 -107 239 -260c0 -170 -74 -280 -252 -280z" />
    <glyph glyph-name="ograve" unicode="&#xf2;" horiz-adv-x="582" 
d="M307 572l-138 174h130l88 -164zM293 77c80 0 126 52 126 185c0 129 -43 173 -123 173c-83 0 -133 -50 -133 -175c0 -127 39 -183 130 -183zM287 -12c-182 0 -244 113 -244 268c0 166 86 272 257 272s239 -107 239 -260c0 -170 -74 -280 -252 -280z" />
    <glyph glyph-name="otilde" unicode="&#xf5;" horiz-adv-x="582" 
d="M220 722c64 0 105 -45 150 -45c24 0 34 9 34 49l64 -4c11 -83 -26 -129 -87 -129c-64 0 -110 46 -153 46c-23 0 -36 -11 -33 -52l-66 3c-11 86 34 132 91 132zM293 77c80 0 126 52 126 185c0 129 -43 173 -123 173c-83 0 -133 -50 -133 -175c0 -127 39 -183 130 -183z
M287 -12c-182 0 -244 113 -244 268c0 166 86 272 257 272s239 -107 239 -260c0 -170 -74 -280 -252 -280z" />
    <glyph glyph-name="uacute" unicode="&#xfa;" horiz-adv-x="580" 
d="M430 746l-138 -174l-80 10l88 164h130zM70 164v353h115v-333c0 -65 20 -98 81 -98c50 0 106 30 130 54v377h115v-517h-100l-8 57c-45 -41 -105 -68 -177 -68c-108 0 -156 58 -156 175z" />
    <glyph glyph-name="ucircumflex" unicode="&#xfb;" horiz-adv-x="580" 
d="M456 582l-81 -5l-83 105l-83 -107l-82 7l109 165h111zM70 164v353h115v-333c0 -65 20 -98 81 -98c50 0 106 30 130 54v377h115v-517h-100l-8 57c-45 -41 -105 -68 -177 -68c-108 0 -156 58 -156 175z" />
    <glyph glyph-name="udieresis" unicode="&#xfc;" horiz-adv-x="580" 
d="M476 675c0 -44 -30 -71 -73 -71c-45 0 -74 27 -74 71c0 43 29 70 74 70c43 0 73 -27 73 -70zM256 675c0 -44 -30 -71 -73 -71c-44 0 -74 27 -74 71c0 43 30 70 74 70c43 0 73 -27 73 -70zM70 164v353h115v-333c0 -65 20 -98 81 -98c50 0 106 30 130 54v377h115v-517h-100
l-8 57c-45 -41 -105 -68 -177 -68c-108 0 -156 58 -156 175z" />
    <glyph glyph-name="ugrave" unicode="&#xf9;" horiz-adv-x="580" 
d="M289 572l-138 174h130l88 -164zM70 164v353h115v-333c0 -65 20 -98 81 -98c50 0 106 30 130 54v377h115v-517h-100l-8 57c-45 -41 -105 -68 -177 -68c-108 0 -156 58 -156 175z" />
    <glyph glyph-name="yacute" unicode="&#xfd;" horiz-adv-x="502" 
d="M416 746l-138 -174l-80 10l88 164h130zM197 -8l-194 525h124l127 -388h1l127 388h118l-216 -583c-43 -115 -87 -157 -180 -157c-39 0 -83 9 -104 20l11 86c23 -8 56 -16 81 -16c35 0 63 18 84 71z" />
    <glyph glyph-name="ydieresis" unicode="&#xff;" horiz-adv-x="502" 
d="M439 675c0 -44 -30 -71 -73 -71c-45 0 -74 27 -74 71c0 43 29 70 74 70c43 0 73 -27 73 -70zM219 675c0 -44 -30 -71 -73 -71c-44 0 -74 27 -74 71c0 43 30 70 74 70c43 0 73 -27 73 -70zM197 -8l-194 525h124l127 -388h1l127 388h118l-216 -583
c-43 -115 -87 -157 -180 -157c-39 0 -83 9 -104 20l11 86c23 -8 56 -16 81 -16c35 0 63 18 84 71z" />
    <glyph glyph-name="NULL" horiz-adv-x="0" 
 />
    <glyph glyph-name="NULL" horiz-adv-x="0" 
 />
    <glyph glyph-name="CR" unicode="&#xd;" horiz-adv-x="198" 
 />
    <glyph glyph-name="Euro" unicode="&#x20ac;" horiz-adv-x="625" 
d="M361 -12c-138 0 -236 69 -263 245h-90l16 84h66c-1 11 -1 23 -1 35c0 15 0 27 1 40h-56l16 84h49c32 180 137 261 278 261c128 0 220 -61 228 -225l-102 -11c-11 101 -43 139 -127 139c-99 0 -144 -61 -163 -164h217l-16 -84h-209v-34c0 -15 0 -28 1 -41h198l-16 -84
h-173c19 -100 65 -148 153 -148c84 0 119 41 136 125l97 -19c-21 -155 -137 -203 -240 -203z" />
    <glyph glyph-name="uni00A0" unicode="&#xa0;" horiz-adv-x="198" 
 />
    <glyph glyph-name="uni00AD" unicode="&#xad;" horiz-adv-x="311" 
d="M291 242h-271v103h271v-103z" />
    <glyph glyph-name="apostrophe" unicode="&#x2bc;" horiz-adv-x="500" 
d="M167 528l42 175h114l-74 -187z" />
    </font>
</defs>
</svg>
