<?xml version="1.0" standalone="no"?>
<!DOCTYPE svg PUBLIC "-//W3C//DTD SVG 1.1//EN" "http://www.w3.org/Graphics/SVG/1.1/DTD/svg11.dtd" >
<svg>
<metadata>
Created by FontForge 20090622 at Fri Sep  8 09:49:58 2017
 By deploy user
Copyright (c) 2012 by TypeTogether. All rights reserved.
</metadata>
<defs>
<font id="AdelleSans-Thin" horiz-adv-x="570" >
  <font-face 
    font-family="Adelle Sans Thin"
    font-weight="100"
    font-stretch="normal"
    units-per-em="1000"
    panose-1="0 0 0 0 0 0 0 0 0 0"
    ascent="750"
    descent="-250"
    x-height="508"
    cap-height="724"
    bbox="-52 -226 999 911"
    underline-thickness="50"
    underline-position="-100"
    unicode-range="U+000D-U+2122"
  />
<missing-glyph horiz-adv-x="500" 
d="M100 50h300v400h-300v-400zM50 0v500h400v-500h-400z" />
    <glyph glyph-name=".notdef" horiz-adv-x="500" 
d="M100 50h300v400h-300v-400zM50 0v500h400v-500h-400z" />
    <glyph glyph-name=".null" horiz-adv-x="0" 
 />
    <glyph glyph-name="nonmarkingreturn" horiz-adv-x="333" 
 />
    <glyph glyph-name="NULL" horiz-adv-x="0" 
 />
    <glyph glyph-name="NULL" horiz-adv-x="0" 
 />
    <glyph glyph-name="CR" unicode="&#xd;" horiz-adv-x="242" 
 />
    <glyph glyph-name="space" unicode=" " horiz-adv-x="242" 
 />
    <glyph glyph-name="exclam" unicode="!" horiz-adv-x="249" 
d="M177 39q0 -51 -52 -51q-51 0 -51 51q0 50 51 50q52 0 52 -50zM141 179h-32l-15 545h59z" />
    <glyph glyph-name="quotedbl" unicode="&#x22;" horiz-adv-x="371" 
d="M129 465h-59v259h59v-259zM301 465h-59v259h59v-259z" />
    <glyph glyph-name="numbersign" unicode="#" horiz-adv-x="607" 
d="M365 186l29 190h-143l-31 -190h145zM381 0h-44l22 148h-145l-23 -148h-44l21 148h-131l12 38h127l30 190h-130l10 39h127l21 128h43l-20 -128h143l19 128h44l-18 -128h130l-9 -39h-128l-28 -190h128l-9 -38h-126z" />
    <glyph glyph-name="dollar" unicode="$" horiz-adv-x="515" 
d="M408 184q0 60 -31.5 90.5t-89.5 48.5v-270q56 7 88.5 40t32.5 91zM118 528q0 -61 32.5 -91t94.5 -52v280q-68 -6 -97.5 -44t-29.5 -93zM456 540l-49 -10q-11 58 -38 93.5t-82 41.5v-293q33 -10 52 -17.5t45.5 -22.5t41 -32t25 -45t10.5 -63q0 -77 -45.5 -125t-127.5 -56
v-90h-40v88q-180 5 -206 184l48 12q14 -76 49 -112.5t106 -40.5v284l-38 12t-35 13.5t-34.5 18t-28 23.5t-23.5 31.5t-13.5 40.5t-5.5 52q0 83 52 129.5t127 53.5v82h41v-82q74 -8 115 -49t54 -121z" />
    <glyph glyph-name="percent" unicode="%" horiz-adv-x="780" 
d="M189 -18h-51l439 742h51zM569 31q103 0 103 142q0 134 -99 134q-57 0 -81.5 -42t-24.5 -97q0 -137 102 -137zM567 -12q-80 0 -117 50t-37 126q0 83 43 135t119 52q152 0 152 -174q0 -85 -42 -137t-118 -52zM207 417q103 0 103 142q0 134 -99 134q-57 0 -81.5 -42
t-24.5 -97q0 -137 102 -137zM205 374q-80 0 -117 50t-37 126q0 83 43 135t119 52q152 0 152 -174q0 -85 -42 -137t-118 -52z" />
    <glyph glyph-name="ampersand" unicode="&#x26;" horiz-adv-x="668" 
d="M311 656q-49 0 -79.5 -34.5t-30.5 -91.5q0 -54 34 -130l47 21q119 53 119 142q0 93 -90 93zM280 28q85 0 144 43q-105 105 -209 277q-50 -28 -77.5 -66t-27.5 -95q0 -65 45 -112t125 -47zM449 564q0 -108 -143 -173l-53 -24q80 -141 196 -267q60 76 66 230h44
q-5 -167 -78 -256q53 -51 101 -51q21 0 51 14l15 -31q-22 -19 -65 -19q-65 0 -130 57q-72 -56 -176 -56q-91 0 -152 53t-61 138q0 71 32.5 119t98.5 85q-41 80 -41 145q0 69 44 118.5t117 49.5q134 0 134 -132z" />
    <glyph glyph-name="quotesingle" unicode="'" horiz-adv-x="199" 
d="M129 465h-59v259h59v-259z" />
    <glyph glyph-name="parenleft" unicode="(" horiz-adv-x="285" 
d="M251 -153l-47 1q-141 217 -141 432q0 122 43 237.5t106 206.5h50q-151 -246 -151 -444q0 -121 35 -219.5t105 -213.5z" />
    <glyph glyph-name="parenright" unicode=")" horiz-adv-x="285" 
d="M105 -152l-47 -1q70 115 105 213.5t35 219.5q0 198 -151 444h50q63 -91 106 -206.5t43 -237.5q0 -215 -141 -432z" />
    <glyph glyph-name="asterisk" unicode="*" horiz-adv-x="467" 
d="M247 755l17 -151l137 36l7 -19l-127 -64l84 -131l-18 -12l-113 107l-111 -109l-17 13l83 131l-130 64l9 19l138 -35l20 151h21z" />
    <glyph glyph-name="plus" unicode="+" 
d="M309 134h-48v165h-161v47h161v158h48v-158h161v-47h-161v-165z" />
    <glyph glyph-name="comma" unicode="," horiz-adv-x="200" 
d="M28 -115l51 197h62l-75 -204z" />
    <glyph glyph-name="hyphen" unicode="-" horiz-adv-x="318" 
d="M291 271h-271v51h271v-51z" />
    <glyph glyph-name="period" unicode="." horiz-adv-x="209" 
d="M155 37q0 -49 -51 -49q-50 0 -50 49q0 48 50 48q51 0 51 -48z" />
    <glyph glyph-name="slash" unicode="/" horiz-adv-x="334" 
d="M50 -92h-45l281 847h44z" />
    <glyph glyph-name="zero" unicode="0" horiz-adv-x="546" 
d="M274 32q55 0 91 25.5t53.5 75.5t24 103.5t6.5 129.5q0 49 -2 86t-8 76.5t-18 67.5t-30 51t-46.5 34.5t-65.5 11.5q-56 0 -93 -25.5t-56 -75t-26 -105t-7 -133.5q0 -55 3.5 -97.5t14.5 -86.5t29.5 -72.5t51.5 -47t78 -18.5zM271 -12q-57 0 -98.5 21t-65 53.5t-37.5 83
t-18 99.5t-4 113q0 80 9.5 142t33 118.5t72 87.5t118.5 31q56 0 97 -21.5t63.5 -54.5t36 -84t17 -97t3.5 -107q0 -67 -4.5 -119t-19 -104t-39 -86t-66 -55t-98.5 -21z" />
    <glyph glyph-name="one" unicode="1" horiz-adv-x="392" 
d="M256 0h-47v639q-24 -15 -75.5 -26t-80.5 -11l-7 38q72 6 116.5 25t77.5 59h16v-724z" />
    <glyph glyph-name="two" unicode="2" horiz-adv-x="509" 
d="M260 737q83 0 134 -42.5t51 -131.5q0 -80 -37 -148t-120 -169l-168 -206v1h334v-41h-391v35l180 224q89 112 119.5 168.5t30.5 131.5q0 135 -138 135q-41 0 -70 -11t-45 -32.5t-24 -42.5t-14 -52l-46 9q28 172 204 172z" />
    <glyph glyph-name="three" unicode="3" horiz-adv-x="531" 
d="M49 146l48 10q5 -26 12.5 -45t23.5 -38t44.5 -29.5t68.5 -10.5q68 0 115 41t47 126q0 165 -177 165h-60v42h46q83 0 132 43.5t49 113.5q0 130 -136 130q-70 0 -102.5 -31t-48.5 -90l-44 11q33 153 202 153q87 0 133 -46t46 -121q0 -81 -43.5 -124.5t-100.5 -53.5v-2
q156 -22 156 -188q0 -96 -57 -155t-159 -59q-85 0 -135 40.5t-60 117.5z" />
    <glyph glyph-name="four" unicode="4" horiz-adv-x="522" 
d="M77 232h284v445zM407 0h-47v189h-341v37l324 498h65v-492h88v-43h-89v-189z" />
    <glyph glyph-name="five" unicode="5" horiz-adv-x="528" 
d="M76 367l28 357h322v-43h-279l-25 -279q64 57 152 57q36 0 68 -10t62 -33.5t48 -69t18 -109.5q0 -110 -60 -179.5t-169 -69.5q-83 0 -136.5 40t-67.5 119l48 12q27 -126 157 -126q71 0 123 50t52 155q0 90 -40.5 133.5t-107.5 43.5q-87 0 -157 -65z" />
    <glyph glyph-name="six" unicode="6" horiz-adv-x="556" 
d="M122 286q3 -41 7.5 -71.5t16 -67.5t29 -60.5t47.5 -40t70 -16.5q70 0 115.5 48.5t45.5 147.5q0 168 -141 168q-108 0 -190 -108zM490 594l-44 -11q-17 65 -48 88.5t-80 23.5q-58 0 -99.5 -36.5t-61.5 -95.5t-29 -115t-9 -112q30 39 83.5 71t110.5 32q95 0 142 -58.5
t47 -149.5q0 -111 -56.5 -177t-155.5 -66q-65 0 -110 28t-67.5 79t-32 108.5t-9.5 130.5q0 52 6 102t23 106.5t44 98t74 69t107 27.5q64 0 107.5 -35t57.5 -108z" />
    <glyph glyph-name="seven" unicode="7" horiz-adv-x="499" 
d="M173 0h-53l307 681h-389v43h443v-37z" />
    <glyph glyph-name="eight" unicode="8" horiz-adv-x="519" 
d="M264 388q156 73 156 186q0 58 -38.5 90t-112.5 32q-72 0 -112 -36t-40 -100q0 -68 37.5 -104.5t109.5 -67.5zM255 348q-79 -33 -119 -70.5t-40 -106.5q0 -64 41.5 -102.5t124.5 -38.5q85 0 126.5 44t41.5 103q0 38 -15 67t-43 48t-51 30t-57 23q-2 0 -3 0.5l-3 1.5t-3 1z
M310 372q37 -16 60 -28t52 -35.5t43 -57t14 -77.5q0 -84 -60.5 -135t-159.5 -51q-108 0 -161.5 50t-53.5 133q0 132 166 197q-62 24 -102 71.5t-40 114.5q0 88 58.5 135.5t148.5 47.5q89 0 141.5 -43t52.5 -121q0 -126 -159 -201z" />
    <glyph glyph-name="nine" unicode="9" horiz-adv-x="556" 
d="M438 429q-2 41 -5.5 73t-15 70t-29 63.5t-48.5 43t-72 17.5q-71 0 -116 -49t-45 -150q0 -87 37 -132t106 -45q53 0 103.5 31t84.5 78zM58 135l46 11q26 -115 144 -115q55 0 93.5 26.5t59 76.5t30 108t10.5 134q-30 -39 -83 -70t-110 -31q-96 0 -143.5 61.5t-47.5 156.5
q0 112 57 178t156 66q65 0 110.5 -28t68 -79t31.5 -108t9 -131q0 -85 -10 -151t-35 -126t-75.5 -93t-123.5 -33q-74 0 -123 36.5t-64 110.5z" />
    <glyph glyph-name="colon" unicode=":" horiz-adv-x="209" 
d="M155 442q0 -49 -51 -49q-50 0 -50 49q0 48 50 48q51 0 51 -48zM155 37q0 -49 -51 -49q-50 0 -50 49q0 48 50 48q51 0 51 -48z" />
    <glyph glyph-name="semicolon" unicode=";" horiz-adv-x="200" 
d="M164 442q0 -49 -51 -49q-50 0 -50 49q0 48 50 48q51 0 51 -48zM15 -115l51 197h62l-75 -204z" />
    <glyph glyph-name="less" unicode="&#x3c;" 
d="M460 104l-371 151v57l371 164v-50l-320 -141l320 -132v-49z" />
    <glyph glyph-name="equal" unicode="=" 
d="M468 335h-365v45h365v-45zM468 193h-365v45h365v-45z" />
    <glyph glyph-name="greater" unicode="&#x3e;" 
d="M460 255l-371 -151v49l320 132l-320 141v50l371 -164v-57z" />
    <glyph glyph-name="question" unicode="?" horiz-adv-x="481" 
d="M215 39q0 -51 -51 -51q-52 0 -52 51q0 50 52 50q51 0 51 -50zM187 178h-44v175q48 5 84 14.5t68.5 29t49.5 53.5t17 82q0 85 -39 117t-108 32q-62 0 -101 -26.5t-58 -97.5l-43 9q38 155 204 155q193 0 193 -181q0 -185 -223 -221v-141z" />
    <glyph glyph-name="at" unicode="@" horiz-adv-x="833" 
d="M516 111v211q-43 38 -102 38q-58 0 -92.5 -46.5t-34.5 -136.5q0 -148 102 -148q39 0 75 23t52 59zM647 -46l28 -27q-84 -88 -251 -88q-165 0 -268.5 92t-103.5 262q0 169 105 270t276 101q155 0 251.5 -80.5t96.5 -238.5q0 -123 -43 -184t-120 -61q-69 0 -96 56
q-19 -26 -56.5 -45t-79.5 -19t-72 15.5t-46 43t-23 58.5t-7 69q0 95 48 157t126 62q64 0 106 -36l3 30h39v-257q0 -28 1 -41.5t6.5 -30.5t18 -24t34.5 -7q48 0 83.5 46.5t35.5 155.5q0 295 -312 295q-154 0 -243 -91.5t-89 -242.5q0 -83 27 -145.5t74 -99.5t106 -55t129 -18
q69 0 126 21t90 57z" />
    <glyph glyph-name="A" unicode="A" horiz-adv-x="637" 
d="M450 290l-134 403l-133 -403h267zM283 724h70l249 -724h-54l-84 248h-295l-84 -248h-50z" />
    <glyph glyph-name="B" unicode="B" horiz-adv-x="638" 
d="M159 393h138q36 0 68.5 7t65.5 23t52.5 48.5t19.5 77.5q0 72 -40 102t-132 30h-172v-288zM159 44h155q40 0 69 3t58 12t47 25t29 43.5t11 65.5q0 78 -52 117t-138 39h-179v-305zM314 0h-202v724h227q120 0 168.5 -47t48.5 -130q0 -140 -154 -170v-2q176 -25 176 -181
q0 -105 -68.5 -149.5t-195.5 -44.5z" />
    <glyph glyph-name="C" unicode="C" horiz-adv-x="716" 
d="M379 -12q-159 0 -234 96.5t-75 263.5q0 187 89.5 288t238.5 101q112 0 179.5 -57.5t78.5 -172.5l-46 -4q-15 97 -64 145t-149 48q-128 0 -202.5 -88.5t-74.5 -251.5q0 -327 262 -327q95 0 148.5 39.5t76.5 130.5l42 -10q-39 -201 -270 -201z" />
    <glyph glyph-name="D" unicode="D" horiz-adv-x="741" 
d="M160 41h143q154 0 235.5 83.5t81.5 243.5q0 173 -79.5 244t-232.5 71h-148v-642zM295 0h-183v724h200q183 0 271 -91.5t88 -259.5q0 -173 -94 -273t-282 -100z" />
    <glyph glyph-name="E" unicode="E" 
d="M160 347v-305h358v-42h-406v724h398v-42h-350v-292h327v-43h-327z" />
    <glyph glyph-name="F" unicode="F" horiz-adv-x="543" 
d="M160 333v-333h-48v724h399v-42h-351v-305h325v-44h-325z" />
    <glyph glyph-name="G" unicode="G" horiz-adv-x="756" 
d="M615 0l-8 115q-22 -54 -82 -90.5t-145 -36.5q-157 0 -233.5 98.5t-76.5 268.5q0 187 89 284.5t241 97.5q237 0 256 -232l-46 -5q-12 107 -64.5 151.5t-148.5 44.5q-130 0 -204 -88.5t-74 -248.5q0 -78 15 -137.5t39.5 -95.5t60 -58.5t72 -30.5t80.5 -8q104 0 164 65.5
t60 147.5v87h-235v45h277v-374h-37z" />
    <glyph glyph-name="H" unicode="H" horiz-adv-x="725" 
d="M613 724v-724h-48v350h-405v-350h-48v724h48v-330h405v330h48z" />
    <glyph glyph-name="I" unicode="I" horiz-adv-x="272" 
d="M160 724v-724h-48v724h48z" />
    <glyph glyph-name="J" unicode="J" horiz-adv-x="487" 
d="M338 176v548h48v-551q0 -102 -46 -143.5t-131 -41.5q-160 0 -169 156l47 8q7 -58 34 -89.5t93 -31.5q57 0 90.5 30.5t33.5 114.5z" />
    <glyph glyph-name="K" unicode="K" horiz-adv-x="623" 
d="M160 724v-382l357 382h60l-299 -319l326 -405h-58l-301 373l-85 -90v-283h-48v724h48z" />
    <glyph glyph-name="L" unicode="L" horiz-adv-x="552" 
d="M160 724v-683h337v-41h-385v724h48z" />
    <glyph glyph-name="M" unicode="M" horiz-adv-x="885" 
d="M773 724v-724h-47v675h-2l-250 -675h-66l-248 676h-2v-676h-46v724h81l249 -687h1l252 687h78z" />
    <glyph glyph-name="N" unicode="N" horiz-adv-x="745" 
d="M633 0h-65l-409 683v-683h-47v724h77l398 -671v671h46v-724z" />
    <glyph glyph-name="O" unicode="O" horiz-adv-x="781" 
d="M390 29q121 0 196 88.5t75 251.5q0 154 -72 240.5t-191 86.5q-121 0 -199 -88.5t-78 -244.5t74.5 -245t194.5 -89zM386 -12q-154 0 -235 103t-81 273q0 166 87.5 269.5t242.5 103.5q150 0 230.5 -100t80.5 -258q0 -180 -84.5 -285.5t-240.5 -105.5z" />
    <glyph glyph-name="P" unicode="P" horiz-adv-x="612" 
d="M159 329h132q51 0 87 7t68.5 25.5t48.5 57t16 96.5q0 86 -48 127t-156 41h-148v-354zM159 286v-286h-47v724h209q241 0 241 -210q0 -122 -70.5 -175t-201.5 -53h-131z" />
    <glyph glyph-name="Q" unicode="Q" horiz-adv-x="781" 
d="M390 31q86 0 149 45l-140 157l35 29l143 -158q83 90 83 265q0 154 -71.5 240.5t-190.5 86.5q-121 0 -199 -88.5t-78 -244.5t73.5 -244t195.5 -88zM386 -12q-156 0 -236 103t-80 273q0 166 87.5 269.5t242.5 103.5q150 0 230.5 -100t80.5 -258q0 -205 -104 -309l94 -103
l-32 -27l-95 101q-79 -53 -188 -53z" />
    <glyph glyph-name="R" unicode="R" horiz-adv-x="637" 
d="M159 363h170q90 0 138 39t48 133q0 45 -14 75t-42.5 45.5t-62.5 21.5t-83 6h-154v-320zM415 332l187 -332h-53l-180 321h-210v-321h-47v724h223q231 0 231 -190q0 -81 -40 -132t-111 -70z" />
    <glyph glyph-name="S" unicode="S" horiz-adv-x="578" 
d="M298 694q-95 0 -137.5 -39.5t-42.5 -103.5q0 -67 40.5 -99t124.5 -56q108 -31 144 -50q96 -52 96 -160q0 -101 -67.5 -149.5t-172.5 -48.5q-218 0 -251 196l49 10q32 -161 201 -161q36 0 66.5 6.5t59 22t45 46t16.5 73.5q0 34 -12.5 60.5t-27.5 42t-48 30t-51.5 20.5
t-60.5 17q-46 12 -77 24.5t-62.5 34.5t-47.5 56.5t-16 82.5q0 85 62.5 136.5t166.5 51.5q198 0 225 -199l-46 -5q-8 35 -16 57t-26.5 49.5t-52 41t-81.5 13.5z" />
    <glyph glyph-name="T" unicode="T" horiz-adv-x="532" 
d="M290 0h-48v682h-222v42h492v-42h-222v-682z" />
    <glyph glyph-name="U" unicode="U" horiz-adv-x="718" 
d="M360 32q100 0 151 44.5t51 153.5v494h48v-496q0 -240 -256 -240q-128 0 -187 61t-59 179v496h48v-492q0 -108 53 -154t151 -46z" />
    <glyph glyph-name="V" unicode="V" horiz-adv-x="614" 
d="M348 0h-69l-249 724h53l230 -683h1l220 683h50z" />
    <glyph glyph-name="W" unicode="W" horiz-adv-x="870" 
d="M680 0h-65l-174 673h-3l-184 -673h-57l-157 724h51l137 -661h2l178 661h63l175 -673h2l135 673h47z" />
    <glyph glyph-name="X" unicode="X" horiz-adv-x="607" 
d="M556 724l-228 -351l254 -373h-53l-231 338l-219 -338h-54l241 369l-229 355h54l205 -321l207 321h53z" />
    <glyph glyph-name="Y" unicode="Y" horiz-adv-x="538" 
d="M297 291v-291h-48v287l-245 437h54l216 -384h1l210 384h49z" />
    <glyph glyph-name="Z" unicode="Z" horiz-adv-x="585" 
d="M519 689l-419 -647h436v-42h-497v34l417 648h-404v42h467v-35z" />
    <glyph glyph-name="bracketleft" unicode="[" horiz-adv-x="239" 
d="M198 -143h-127v867h127v-38h-83v-791h83v-38z" />
    <glyph glyph-name="backslash" unicode="\" horiz-adv-x="333" 
d="M328 -92h-45l-280 847h44z" />
    <glyph glyph-name="bracketright" unicode="]" horiz-adv-x="239" 
d="M168 -143h-127v38h83v791h-83v38h127v-867z" />
    <glyph glyph-name="asciicircum" unicode="^" horiz-adv-x="492" 
d="M470 299h-52l-175 321l-173 -321h-48l197 365h51z" />
    <glyph glyph-name="underscore" unicode="_" horiz-adv-x="500" 
d="M500 -181h-500v36h500v-36z" />
    <glyph glyph-name="grave" unicode="`" horiz-adv-x="500" 
d="M288 572l-144 179h72l113 -165z" />
    <glyph glyph-name="a" unicode="a" horiz-adv-x="536" 
d="M391 102v150q-23 3 -78 3q-88 0 -138.5 -26.5t-50.5 -97.5q0 -101 105 -101q48 0 92 19.5t70 52.5zM440 348v-276q0 -23 6 -32.5t25 -9.5q12 0 31 6l4 -32q-22 -12 -54 -12q-31 0 -45.5 19t-12.5 45q-68 -68 -172 -68q-46 0 -78 14t-46.5 37.5t-20 44t-5.5 42.5
q0 170 249 170q23 0 69 -2v45q0 77 -25.5 107.5t-95.5 30.5q-62 0 -91 -22.5t-38 -72.5l-47 8q12 69 56 98.5t124 29.5q90 0 128.5 -38.5t38.5 -131.5z" />
    <glyph glyph-name="b" unicode="b" horiz-adv-x="580" 
d="M144 395v-302q75 -60 157 -60q84 0 123.5 64t39.5 175q0 112 -35.5 157.5t-107.5 45.5q-49 0 -98.5 -25.5t-78.5 -54.5zM139 0h-44v755h48v-311q89 74 186 74q89 0 137.5 -58.5t48.5 -192.5q0 -141 -60.5 -210t-157.5 -69q-84 0 -154 55z" />
    <glyph glyph-name="c" unicode="c" horiz-adv-x="530" 
d="M285 -12q-225 0 -225 264q0 133 61 199.5t175 66.5q75 0 125.5 -43t54.5 -122l-53 -6q-7 66 -39 97t-94 31q-75 0 -127 -50.5t-52 -165.5q0 -124 49 -174.5t124 -50.5q124 0 146 116l50 -10q-13 -77 -68 -114.5t-127 -37.5z" />
    <glyph glyph-name="d" unicode="d" horiz-adv-x="581" 
d="M437 108v311q-81 55 -155 55q-165 0 -165 -226q0 -110 37 -163.5t114 -53.5q96 0 169 77zM486 755v-755h-42l-5 58q-88 -70 -181 -70q-89 0 -141 63.5t-52 197.5q0 138 61 203.5t157 65.5q81 0 153 -50v287h50z" />
    <glyph glyph-name="e" unicode="e" horiz-adv-x="543" 
d="M112 287h320q5 186 -145 186q-70 0 -119.5 -45.5t-55.5 -140.5zM284 -12q-224 0 -224 266q0 132 66.5 198t166.5 66q97 0 143.5 -57.5t46.5 -150.5q0 -37 -5 -66h-366q2 -117 49 -163t127 -46q59 0 92 26t48 79l47 -9q-17 -73 -69 -108t-122 -35z" />
    <glyph glyph-name="f" unicode="f" horiz-adv-x="299" 
d="M308 748l-3 -40q-37 13 -73 13q-80 0 -80 -95v-118h146v-43h-146v-465h-49v465h-80v43h80v102q0 153 126 153q47 0 79 -15z" />
    <glyph glyph-name="g" unicode="g" horiz-adv-x="547" 
d="M462 -65q0 71 -103 76l-191 10q-74 -53 -74 -110q0 -40 36.5 -64.5t138.5 -24.5q193 0 193 113zM414 336q0 140 -146 140q-69 0 -112.5 -34t-43.5 -104q0 -63 37.5 -100.5t115.5 -37.5q68 0 108.5 36.5t40.5 99.5zM266 518q110 0 159 -60q23 56 66 56q17 0 36 -6v-50
q-47 1 -93 -14q32 -37 32 -107q0 -84 -56 -133t-139 -49q-64 0 -102 15q-42 -31 -42 -61q0 -40 87 -45l140 -8q82 -5 121 -32t39 -91q0 -47 -23 -80t-62.5 -49.5t-79.5 -23t-86 -6.5q-222 0 -222 131q0 32 14 58t28 38t43 34q-21 5 -35.5 22.5t-14.5 39.5q0 47 58 92
q-35 17 -55.5 55t-20.5 85q0 87 57 138t151 51z" />
    <glyph glyph-name="h" unicode="h" horiz-adv-x="578" 
d="M490 342v-342h-49v340q0 66 -25.5 99t-88.5 33q-50 0 -103.5 -25t-81.5 -53v-394h-49v755h49v-312q105 75 194 75q154 0 154 -176z" />
    <glyph glyph-name="i" unicode="i" horiz-adv-x="236" 
d="M169 677q0 -42 -46 -42t-46 42q0 43 46 43t46 -43zM145 508v-508h-49v508h49z" />
    <glyph glyph-name="j" unicode="j" horiz-adv-x="233" 
d="M170 689q0 -42 -46 -42t-46 42q0 43 46 43t46 -43zM26 -223q-50 0 -78 15l9 43q34 -12 71 -12q68 0 68 84v601h49v-597q0 -69 -28.5 -101.5t-90.5 -32.5z" />
    <glyph glyph-name="k" unicode="k" horiz-adv-x="504" 
d="M142 755v-510l254 263h59l-180 -187l193 -321h-53l-175 286l-98 -99v-187h-49v755h49z" />
    <glyph glyph-name="l" unicode="l" horiz-adv-x="236" 
d="M145 755v-755h-49v755h49z" />
    <glyph glyph-name="m" unicode="m" horiz-adv-x="870" 
d="M142 393v-393h-49v508h44l4 -67q52 38 95 57.5t92 19.5q99 0 126 -77q106 77 189 77q79 0 109 -42.5t30 -134.5v-341h-49v339q0 71 -19 103t-76 32q-43 0 -92.5 -23.5t-82.5 -51.5q4 -25 4 -58v-341h-49v339q0 70 -19 102.5t-77 32.5q-45 0 -98.5 -26.5t-81.5 -54.5z" />
    <glyph glyph-name="n" unicode="n" horiz-adv-x="578" 
d="M490 342v-342h-49v340q0 66 -26 99.5t-87 33.5q-49 0 -104 -26t-82 -53v-394h-49v508h43l3 -66q106 76 198 76q80 0 116.5 -44t36.5 -132z" />
    <glyph glyph-name="o" unicode="o" horiz-adv-x="572" 
d="M288 33q172 0 172 226q0 115 -42.5 164.5t-124.5 49.5q-84 0 -134 -54.5t-50 -162.5q0 -223 179 -223zM284 -12q-224 0 -224 264q0 125 62 195.5t175 70.5q109 0 162 -67t53 -186q0 -277 -228 -277z" />
    <glyph glyph-name="p" unicode="p" horiz-adv-x="580" 
d="M144 395v-302q75 -61 157 -61q163 0 163 240q0 110 -34 157.5t-109 47.5q-49 0 -98 -25t-79 -57zM95 -212v720h43l4 -65q86 75 188 75q185 0 185 -251q0 -140 -60 -209.5t-154 -69.5q-78 0 -159 56v-256h-47z" />
    <glyph glyph-name="q" unicode="q" horiz-adv-x="580" 
d="M436 108v303q-2 1 -13 9.5t-17 12l-19 11.5t-23.5 12.5t-25 9.5t-29.5 7.5t-31 2.5q-162 0 -162 -233q0 -111 37.5 -162t116.5 -51q90 0 166 78zM485 508v-720h-47v271q-83 -71 -180 -71q-91 0 -142 63t-51 197q0 139 60.5 204.5t156.5 65.5q70 0 151 -52l3 42h49z" />
    <glyph glyph-name="r" unicode="r" horiz-adv-x="339" 
d="M327 518v-49q-46 6 -99.5 -12t-85.5 -50v-407h-49v508h39l5 -68q78 85 190 78z" />
    <glyph glyph-name="s" unicode="s" horiz-adv-x="477" 
d="M241 518q87 0 124 -39t44 -113l-47 -6q-7 59 -33.5 87.5t-90.5 28.5q-65 0 -92.5 -26.5t-27.5 -66.5q0 -26 9.5 -44t31 -29.5t41 -17.5t54.5 -13q39 -8 62 -15t51.5 -22.5t42 -42t13.5 -64.5q0 -67 -45.5 -107t-134.5 -40q-84 0 -131.5 36.5t-59.5 119.5l47 9
q12 -58 42 -89.5t104 -31.5q58 0 92.5 24.5t34.5 76.5q0 47 -31.5 68.5t-94.5 32.5q-34 6 -52 10.5t-46 15.5t-42.5 24.5t-26 38t-11.5 56.5q0 67 50 103t123 36z" />
    <glyph glyph-name="t" unicode="t" horiz-adv-x="364" 
d="M330 56l14 -38q-18 -13 -50 -21.5t-59 -8.5q-70 0 -99.5 30t-29.5 98v349h-81v43h81v145l49 8v-153h144v-43h-144v-339q0 -50 17.5 -73.5t65.5 -23.5q51 0 92 27z" />
    <glyph glyph-name="u" unicode="u" horiz-adv-x="581" 
d="M90 167v341h49v-340q0 -67 25 -100t86 -33q49 0 103 25.5t82 53.5v394h49v-508h-43l-3 65q-52 -37 -97 -56t-100 -19q-81 0 -116 43.5t-35 133.5z" />
    <glyph glyph-name="v" unicode="v" horiz-adv-x="483" 
d="M272 0h-57l-202 508h54l177 -452h2l175 452h49z" />
    <glyph glyph-name="w" unicode="w" horiz-adv-x="721" 
d="M238 0h-59l-166 508h51l144 -459h2l123 459h62l122 -457h2l143 457h46l-163 -508h-61l-119 458h-2z" />
    <glyph glyph-name="x" unicode="x" horiz-adv-x="464" 
d="M425 508l-170 -239l186 -269h-55l-158 229l-151 -229h-55l174 265l-171 243h55l145 -207l147 207h53z" />
    <glyph glyph-name="y" unicode="y" horiz-adv-x="457" 
d="M201 0l-184 508h52l159 -441h1l163 441h52l-232 -603q-27 -71 -63 -99.5t-88 -28.5q-38 0 -87 18l10 41q34 -16 80 -16q35 0 60.5 22t47.5 81z" />
    <glyph glyph-name="z" unicode="z" horiz-adv-x="454" 
d="M416 474l-324 -434h334v-40h-393v33l323 433h-317v42h377v-34z" />
    <glyph glyph-name="braceleft" unicode="{" horiz-adv-x="284" 
d="M254 -105v-40h-38q-130 0 -130 103q0 35 6.5 108.5t6.5 100.5q0 97 -82 97h-16v46h13q85 0 85 97q0 29 -6.5 114t-6.5 113q0 103 129 103h39v-43h-50q-36 0 -51.5 -14.5t-15.5 -45.5q0 -28 5.5 -109.5t5.5 -117.5q0 -97 -67 -119q20 -8 32 -17t23.5 -34.5t11.5 -65.5
q0 -38 -5 -107.5t-5 -93.5q0 -37 18 -56t63 -19h35z" />
    <glyph glyph-name="bar" unicode="|" horiz-adv-x="280" 
d="M162 -143h-44v898h44v-898z" />
    <glyph glyph-name="braceright" unicode="}" horiz-adv-x="284" 
d="M30 697v40h38q130 0 130 -103q0 -35 -6.5 -108.5t-6.5 -100.5q0 -97 82 -97h16v-46h-13q-85 0 -85 -97q0 -29 6.5 -114t6.5 -113q0 -103 -129 -103h-39v43h50q36 0 51.5 14.5t15.5 45.5q0 28 -5.5 109.5t-5.5 117.5q0 40 11.5 66t23.5 35.5t32 17.5q-20 8 -32 17
t-23.5 34.5t-11.5 65.5q0 38 5 107.5t5 93.5q0 37 -18 56t-63 19h-35z" />
    <glyph glyph-name="asciitilde" unicode="~" horiz-adv-x="459" 
d="M110 394q33 0 121 -24t109 -24q23 0 33 11t10 47l40 -1q7 -56 -17 -79.5t-62 -23.5q-30 0 -119.5 24t-112.5 24q-43 0 -39 -60l-37 2q-7 54 17 79t57 25z" />
    <glyph glyph-name="uni00A0" unicode="&#xa0;" horiz-adv-x="242" 
 />
    <glyph glyph-name="exclamdown" unicode="&#xa1;" horiz-adv-x="249" 
d="M83 468q0 51 52 51q51 0 51 -51q0 -50 -51 -50q-52 0 -52 50zM119 328h32l15 -545h-59z" />
    <glyph glyph-name="cent" unicode="&#xa2;" horiz-adv-x="501" 
d="M121 352q0 -194 138 -208v401q-138 -16 -138 -193zM257 691h40v-99q68 -4 110 -43t46 -110l-46 -6q-7 57 -32.5 83.5t-76.5 29.5v-402q50 5 77 31.5t39 79.5l44 -10q-22 -130 -160 -146v-99h-39v99q-95 6 -142 72.5t-47 174.5q0 111 50.5 173t136.5 72v100z" />
    <glyph glyph-name="sterling" unicode="&#xa3;" horiz-adv-x="538" 
d="M27 42h53q91 88 91 183q0 53 -28 106h-109v41h85q-48 91 -48 161q0 89 60.5 146.5t151.5 57.5t139 -42.5t58 -137.5l-46 -5q-9 72 -42.5 106.5t-106.5 34.5t-119.5 -39t-46.5 -113q0 -66 49 -169h247v-41h-224q24 -57 24 -110q0 -100 -79 -179h215q53 0 77.5 27.5
t36.5 92.5l49 -11q-12 -80 -53 -115.5t-114 -35.5h-320v42z" />
    <glyph glyph-name="currency" unicode="&#xa4;" 
d="M292 107q75 0 118.5 49.5t43.5 126.5q0 82 -42.5 127.5t-122.5 45.5q-77 0 -120 -47t-43 -126q0 -78 43 -127t123 -49zM564 51l-43 -38l-94 92q-57 -44 -140 -44q-88 0 -144 46l-50 -51l-43 -43l-39 37l96 96q-35 57 -35 137q0 69 37 128l-95 94l43 39l91 -91
q60 50 146 50q92 0 145 -47l87 87l39 -37l-90 -92q34 -52 34 -127q0 -81 -41 -141z" />
    <glyph glyph-name="yen" unicode="&#xa5;" horiz-adv-x="499" 
d="M416 248h-136v-248h-49v248h-137v42h137v99h-137v42h106l-170 293h57l169 -299h1l162 299h52l-164 -293h109v-42h-136v-99h136v-42z" />
    <glyph glyph-name="brokenbar" unicode="&#xa6;" horiz-adv-x="280" 
d="M162 408h-44v347h44v-347zM162 -143h-44v388h44v-388z" />
    <glyph glyph-name="section" unicode="&#xa7;" horiz-adv-x="534" 
d="M104 256q0 -39 25.5 -64t56 -34.5t82.5 -23t81 -25.5q92 59 92 129q0 31 -14.5 53t-42 35t-55.5 21l-67.5 19t-64.5 21q-93 -64 -93 -131zM52 259q0 76 102 148q-67 48 -67 131t56 127t143 44q91 0 142 -47.5t54 -130.5l-50 -8q-9 69 -44.5 104.5t-106.5 35.5
q-69 0 -105 -33.5t-36 -84.5q0 -55 36.5 -86t88 -45l103.5 -28.5t88.5 -51t36.5 -98.5q0 -41 -27 -80.5t-73 -67.5q65 -44 65 -128t-56 -129t-143 -45q-91 0 -142 47.5t-54 130.5l53 8q6 -69 40.5 -104t105.5 -35q70 0 106.5 34.5t36.5 92.5q0 39 -19.5 65t-50.5 39
t-68.5 22.5t-75.5 20.5t-69 27t-50.5 47.5t-19.5 77.5z" />
    <glyph glyph-name="dieresis" unicode="&#xa8;" horiz-adv-x="500" 
d="M389 665q0 -42 -44 -42q-21 0 -33 11t-12 31t12 31t33 11q44 0 44 -42zM198 665q0 -42 -44 -42q-45 0 -45 42t45 42q44 0 44 -42z" />
    <glyph glyph-name="copyright" unicode="&#xa9;" horiz-adv-x="750" 
d="M484 248l41 -7q-16 -126 -146 -126q-92 0 -136.5 53t-44.5 142q0 87 48 140.5t134 53.5q133 0 140 -126l-45 -6q-4 47 -26.5 70t-69.5 23q-59 0 -95.5 -38t-36.5 -119q0 -68 32 -110.5t97 -42.5q51 0 74.5 22t33.5 71zM376 21q131 0 207 77t76 209q0 135 -78 209t-205 74
q-125 0 -204.5 -77.5t-79.5 -212.5q0 -129 76 -204t208 -75zM701 313q0 -146 -90.5 -235.5t-236.5 -89.5q-156 0 -240.5 87t-84.5 224q0 149 93.5 237t233.5 88q151 0 238 -84t87 -227z" />
    <glyph glyph-name="ordfeminine" unicode="&#xaa;" horiz-adv-x="364" 
d="M254 354v81q-22 2 -41 2q-22 0 -38 -1.5t-37 -7.5t-32 -20.5t-11 -37.5q0 -59 63 -59q57 0 96 43zM298 504v-168q0 -14 4.5 -19.5t16.5 -5.5q8 0 20 3l3 -28q-16 -10 -40 -10q-23 0 -34.5 12t-11.5 30q-44 -44 -110 -44q-39 0 -62.5 16.5t-30 34.5t-6.5 37q0 110 163 110
q10 0 23.5 -0.5t19.5 -0.5v38q0 34 -16 51.5t-57 17.5q-37 0 -54.5 -13.5t-22.5 -43.5l-41 7q7 46 36.5 66t85.5 20q61 0 87.5 -25t26.5 -85z" />
    <glyph glyph-name="guillemotleft" unicode="&#xab;" horiz-adv-x="415" 
d="M356 103h-55l-88 158l89 147h54l-84 -146zM214 103h-55l-88 158l89 147h54l-84 -146z" />
    <glyph glyph-name="logicalnot" unicode="&#xac;" 
d="M471 207h-60v94h-310v51h370v-145z" />
    <glyph glyph-name="uni00AD" unicode="&#xad;" horiz-adv-x="311" 
d="M291 271h-271v51h271v-51z" />
    <glyph glyph-name="registered" unicode="&#xae;" horiz-adv-x="443" 
d="M197 488h13q23 0 34.5 7t11.5 27q0 16 -9.5 22t-29.5 6h-20v-62zM257 472l51 -87h-35l-46 77h-30v-77h-34v191h65q62 0 62 -54q0 -33 -33 -50zM367 479q0 69 -40 106.5t-105 37.5q-63 0 -103.5 -39.5t-40.5 -107.5q0 -67 38.5 -104.5t105.5 -37.5q68 0 106.5 38.5
t38.5 106.5zM403 482q0 -81 -50.5 -131t-131.5 -50q-87 0 -134 48.5t-47 125.5q0 82 52 131.5t130 49.5q84 0 132.5 -47.5t48.5 -126.5z" />
    <glyph glyph-name="macron" unicode="&#xaf;" horiz-adv-x="500" 
d="M388 645h-277v45h277v-45z" />
    <glyph glyph-name="degree" unicode="&#xb0;" horiz-adv-x="299" 
d="M259 642q0 -51 -28 -79.5t-79 -28.5t-80 27.5t-29 76.5q0 53 30.5 81.5t78.5 28.5q50 0 78.5 -27t28.5 -79zM152 576q58 0 58 66q0 64 -58 64q-60 0 -60 -68q0 -62 60 -62z" />
    <glyph glyph-name="plusminus" unicode="&#xb1;" 
d="M470 0h-370v43h370v-43zM309 134h-48v165h-161v47h161v158h48v-158h161v-47h-161v-165z" />
    <glyph glyph-name="twosuperior" unicode="&#xb2;" horiz-adv-x="372" 
d="M191 797q56 0 87.5 -27t31.5 -82q0 -49 -23 -90.5t-75 -98.5l-97 -106h202v-44h-257v40l107 126q54 64 74 97.5t20 74.5q0 68 -77 68q-42 0 -59 -19.5t-24 -57.5l-44 9q17 110 134 110z" />
    <glyph glyph-name="threesuperior" unicode="&#xb3;" horiz-adv-x="390" 
d="M49 447l46 9q7 -35 24.5 -53.5t58.5 -18.5q40 0 65.5 21.5t25.5 67.5q0 86 -100 86h-39v41h29q48 0 76 24t28 63q0 67 -75 67q-40 0 -57.5 -15.5t-26.5 -48.5l-44 9q20 98 133 98q58 0 88 -28.5t30 -75.5q0 -45 -26 -71.5t-62 -35.5v-1q96 -18 96 -114q0 -58 -38 -93.5
t-103 -35.5q-55 0 -89 27t-40 78z" />
    <glyph glyph-name="acute" unicode="&#xb4;" horiz-adv-x="500" 
d="M361 751l-143 -179l-42 14l113 165h72z" />
    <glyph glyph-name="mu" unicode="&#xb5;" horiz-adv-x="629" 
d="M114 -176v684h49v-337q0 -77 21.5 -110t79.5 -33q106 0 197 106v374h49v-508h-51v78q-93 -93 -192 -93q-79 0 -109 47l-3 -3l7 -205h-48z" />
    <glyph glyph-name="paragraph" unicode="&#xb6;" horiz-adv-x="535" 
d="M432 724v-857h-49v811h-104v-811h-49v386q-100 10 -157 69.5t-57 157.5q0 126 77 185t197 59h142z" />
    <glyph glyph-name="periodcentered" unicode="&#xb7;" horiz-adv-x="163" 
d="M133 300q0 -51 -52 -51t-52 51t52 51t52 -51z" />
    <glyph glyph-name="cedilla" unicode="&#xb8;" horiz-adv-x="500" 
d="M138 -193l15 34q26 -19 57 -19q26 0 39 14t13 36q0 27 -18.5 40.5t-62.5 14.5l14 103l38 -7l-9 -66q84 -10 84 -83q0 -40 -27 -65.5t-68 -25.5q-51 0 -75 24z" />
    <glyph glyph-name="onesuperior" unicode="&#xb9;" horiz-adv-x="283" 
d="M193 347h-48v372q-14 -9 -46 -14.5t-52 -5.5l-3 37q83 6 123 51h26v-440z" />
    <glyph glyph-name="ordmasculine" unicode="&#xba;" horiz-adv-x="387" 
d="M196 314q102 0 102 134q0 69 -25 98t-75 29q-51 0 -80.5 -32t-29.5 -98q0 -131 108 -131zM192 274q-151 0 -151 170q0 80 41.5 125t118.5 45q73 0 109 -43.5t36 -118.5q0 -178 -154 -178z" />
    <glyph glyph-name="guillemotright" unicode="&#xbb;" horiz-adv-x="415" 
d="M203 408h54l88 -156l-89 -149h-55l88 148zM61 408h54l88 -156l-89 -149h-55l88 148z" />
    <glyph glyph-name="onequarter" unicode="&#xbc;" horiz-adv-x="829" 
d="M490 151h159v239zM696 0h-48v108h-210v38l197 294h61v-289h53v-43h-53v-108zM211 279h-48v372q-14 -9 -46 -14.5t-52 -5.5l-3 37q83 6 123 51h26v-440zM233 -12h-48l356 736h47z" />
    <glyph glyph-name="onehalf" unicode="&#xbd;" horiz-adv-x="829" 
d="M622 448q56 0 87.5 -27t31.5 -82q0 -49 -23 -90.5t-75 -98.5l-97 -106h202v-44h-257v40l107 126q54 64 74 97.5t20 74.5q0 68 -77 68q-42 0 -59 -19.5t-24 -57.5l-44 9q17 110 134 110zM213 279h-48v372q-14 -9 -46 -14.5t-52 -5.5l-3 37q83 6 123 51h26v-440zM204 -12
h-48l356 736h47z" />
    <glyph glyph-name="threequarters" unicode="&#xbe;" horiz-adv-x="829" 
d="M44 379l46 9q7 -35 24.5 -53.5t58.5 -18.5q40 0 65.5 21.5t25.5 67.5q0 86 -100 86h-39v41h29q48 0 76 24t28 63q0 67 -75 67q-40 0 -57.5 -15.5t-26.5 -48.5l-44 9q20 98 133 98q58 0 88 -28.5t30 -75.5q0 -45 -26 -71.5t-62 -35.5v-1q96 -18 96 -114q0 -58 -38 -93.5
t-103 -35.5q-55 0 -89 27t-40 78zM512 151h159v239zM718 0h-48v108h-210v38l197 294h61v-289h53v-43h-53v-108zM265 -12h-48l356 736h47z" />
    <glyph glyph-name="questiondown" unicode="&#xbf;" horiz-adv-x="440" 
d="M240 468q0 51 51 51q52 0 52 -51q0 -50 -52 -50q-51 0 -51 50zM268 329h44v-175q-48 -5 -84 -14.5t-68.5 -29t-49.5 -53.5t-17 -82q0 -85 39 -117t108 -32q62 0 101 26.5t58 97.5l43 -9q-38 -155 -204 -155q-193 0 -193 181q0 54 17.5 94.5t50 65.5t70 39t85.5 22v141z
" />
    <glyph glyph-name="Agrave" unicode="&#xc0;" horiz-adv-x="637" 
d="M349 767l-135 144h73l105 -130zM450 290l-134 403l-133 -403h267zM283 724h70l249 -724h-54l-84 248h-295l-84 -248h-50z" />
    <glyph glyph-name="Aacute" unicode="&#xc1;" horiz-adv-x="637" 
d="M426 911l-135 -144l-42 14l104 130h73zM450 290l-134 403l-133 -403h267zM283 724h70l249 -724h-54l-84 248h-295l-84 -248h-50z" />
    <glyph glyph-name="Acircumflex" unicode="&#xc2;" horiz-adv-x="637" 
d="M411 769l-94 83l-90 -85l-48 11l123 116h36l123 -116zM450 290l-134 403l-133 -403h267zM283 724h70l249 -724h-54l-84 248h-295l-84 -248h-50z" />
    <glyph glyph-name="Atilde" unicode="&#xc3;" horiz-adv-x="637" 
d="M240 877q33 0 82.5 -22.5t70.5 -22.5q23 0 33 11t10 47l38 -2q7 -56 -16 -79t-61 -23q-30 0 -81.5 23t-74.5 23q-40 0 -39 -60l-36 2q-7 54 16 78.5t58 24.5zM450 290l-134 403l-133 -403h267zM283 724h70l249 -724h-54l-84 248h-295l-84 -248h-50z" />
    <glyph glyph-name="Adieresis" unicode="&#xc4;" horiz-adv-x="637" 
d="M458 826q0 -42 -44 -42q-21 0 -33 11t-12 31t12 31t33 11q44 0 44 -42zM267 826q0 -42 -44 -42q-45 0 -45 42t45 42q44 0 44 -42zM450 290l-134 403l-133 -403h267zM283 724h70l249 -724h-54l-84 248h-295l-84 -248h-50z" />
    <glyph glyph-name="Aring" unicode="&#xc5;" horiz-adv-x="637" 
d="M318 750q55 0 55 60q0 55 -55 55q-26 0 -41.5 -15.5t-15.5 -43.5q0 -56 57 -56zM450 290l-134 403l-133 -403h267zM420 810q0 -74 -65 -93l247 -717h-54l-84 248h-295l-84 -248h-50l245 717q-63 18 -63 87q0 48 28.5 73.5t72.5 25.5q45 0 73.5 -22.5t28.5 -70.5z" />
    <glyph glyph-name="AE" unicode="&#xc6;" horiz-adv-x="998" 
d="M528 381v301h-40l-170 -301h210zM577 339v-297h358v-42h-407v339h-236l-197 -339h-53l422 724h463v-42h-350v-300h327v-43h-327z" />
    <glyph glyph-name="Ccedilla" unicode="&#xc7;" horiz-adv-x="716" 
d="M296 -199l15 34q26 -19 57 -19q26 0 39 14t13 36q0 27 -18.5 40.5t-62.5 14.5l9 68q-142 9 -210 105t-68 254q0 187 89.5 288t238.5 101q112 0 179.5 -57.5t78.5 -172.5l-46 -4q-15 97 -64 145t-149 48q-128 0 -202.5 -88.5t-74.5 -251.5q0 -327 262 -327
q95 0 148.5 39.5t76.5 130.5l42 -10q-39 -196 -262 -201l-5 -37q84 -10 84 -83q0 -40 -27 -65.5t-68 -25.5q-51 0 -75 24z" />
    <glyph glyph-name="Egrave" unicode="&#xc8;" 
d="M344 767l-135 144h73l105 -130zM160 347v-305h358v-42h-406v724h398v-42h-350v-292h327v-43h-327z" />
    <glyph glyph-name="Eacute" unicode="&#xc9;" 
d="M421 911l-135 -144l-42 14l104 130h73zM160 347v-305h358v-42h-406v724h398v-42h-350v-292h327v-43h-327z" />
    <glyph glyph-name="Ecircumflex" unicode="&#xca;" 
d="M406 769l-94 83l-90 -85l-48 11l123 116h36l123 -116zM160 347v-305h358v-42h-406v724h398v-42h-350v-292h327v-43h-327z" />
    <glyph glyph-name="Edieresis" unicode="&#xcb;" 
d="M453 826q0 -42 -44 -42q-21 0 -33 11t-12 31t12 31t33 11q44 0 44 -42zM262 826q0 -42 -44 -42q-45 0 -45 42t45 42q44 0 44 -42zM160 347v-305h358v-42h-406v724h398v-42h-350v-292h327v-43h-327z" />
    <glyph glyph-name="Igrave" unicode="&#xcc;" horiz-adv-x="272" 
d="M167 767l-135 144h73l105 -130zM160 724v-724h-48v724h48z" />
    <glyph glyph-name="Iacute" unicode="&#xcd;" horiz-adv-x="272" 
d="M244 911l-135 -144l-42 14l104 130h73zM160 724v-724h-48v724h48z" />
    <glyph glyph-name="Icircumflex" unicode="&#xce;" horiz-adv-x="272" 
d="M229 769l-94 83l-90 -85l-48 11l123 116h36l123 -116zM160 724v-724h-48v724h48z" />
    <glyph glyph-name="Idieresis" unicode="&#xcf;" horiz-adv-x="272" 
d="M276 826q0 -42 -44 -42q-21 0 -33 11t-12 31t12 31t33 11q44 0 44 -42zM85 826q0 -42 -44 -42q-45 0 -45 42t45 42q44 0 44 -42zM160 724v-724h-48v724h48z" />
    <glyph glyph-name="Eth" unicode="&#xd0;" horiz-adv-x="741" 
d="M160 41h143q154 0 235.5 83.5t81.5 243.5q0 173 -79.5 244t-232.5 71h-148v-292h261v-42h-261v-308zM17 349v42h95v333h200q183 0 271 -91.5t88 -259.5q0 -173 -94 -273t-282 -100h-183v349h-95z" />
    <glyph glyph-name="Ntilde" unicode="&#xd1;" horiz-adv-x="745" 
d="M301 877q33 0 82.5 -22.5t70.5 -22.5q23 0 33 11t10 47l38 -2q7 -56 -16 -79t-61 -23q-30 0 -81.5 23t-74.5 23q-40 0 -39 -60l-36 2q-7 54 16 78.5t58 24.5zM633 0h-65l-409 683v-683h-47v724h77l398 -671v671h46v-724z" />
    <glyph glyph-name="Ograve" unicode="&#xd2;" horiz-adv-x="781" 
d="M427 767l-135 144h73l105 -130zM390 29q121 0 196 88.5t75 251.5q0 154 -72 240.5t-191 86.5q-121 0 -199 -88.5t-78 -244.5t74.5 -245t194.5 -89zM386 -12q-154 0 -235 103t-81 273q0 166 87.5 269.5t242.5 103.5q150 0 230.5 -100t80.5 -258q0 -180 -84.5 -285.5
t-240.5 -105.5z" />
    <glyph glyph-name="Oacute" unicode="&#xd3;" horiz-adv-x="781" 
d="M504 911l-135 -144l-42 14l104 130h73zM390 29q121 0 196 88.5t75 251.5q0 154 -72 240.5t-191 86.5q-121 0 -199 -88.5t-78 -244.5t74.5 -245t194.5 -89zM386 -12q-154 0 -235 103t-81 273q0 166 87.5 269.5t242.5 103.5q150 0 230.5 -100t80.5 -258
q0 -180 -84.5 -285.5t-240.5 -105.5z" />
    <glyph glyph-name="Ocircumflex" unicode="&#xd4;" horiz-adv-x="781" 
d="M489 769l-94 83l-90 -85l-48 11l123 116h36l123 -116zM390 29q121 0 196 88.5t75 251.5q0 154 -72 240.5t-191 86.5q-121 0 -199 -88.5t-78 -244.5t74.5 -245t194.5 -89zM386 -12q-154 0 -235 103t-81 273q0 166 87.5 269.5t242.5 103.5q150 0 230.5 -100t80.5 -258
q0 -180 -84.5 -285.5t-240.5 -105.5z" />
    <glyph glyph-name="Otilde" unicode="&#xd5;" horiz-adv-x="781" 
d="M318 877q33 0 82.5 -22.5t70.5 -22.5q23 0 33 11t10 47l38 -2q7 -56 -16 -79t-61 -23q-30 0 -81.5 23t-74.5 23q-40 0 -39 -60l-36 2q-7 54 16 78.5t58 24.5zM390 29q121 0 196 88.5t75 251.5q0 154 -72 240.5t-191 86.5q-121 0 -199 -88.5t-78 -244.5t74.5 -245
t194.5 -89zM386 -12q-154 0 -235 103t-81 273q0 166 87.5 269.5t242.5 103.5q150 0 230.5 -100t80.5 -258q0 -180 -84.5 -285.5t-240.5 -105.5z" />
    <glyph glyph-name="Odieresis" unicode="&#xd6;" horiz-adv-x="781" 
d="M536 826q0 -42 -44 -42q-21 0 -33 11t-12 31t12 31t33 11q44 0 44 -42zM345 826q0 -42 -44 -42q-45 0 -45 42t45 42q44 0 44 -42zM390 29q121 0 196 88.5t75 251.5q0 154 -72 240.5t-191 86.5q-121 0 -199 -88.5t-78 -244.5t74.5 -245t194.5 -89zM386 -12
q-154 0 -235 103t-81 273q0 166 87.5 269.5t242.5 103.5q150 0 230.5 -100t80.5 -258q0 -180 -84.5 -285.5t-240.5 -105.5z" />
    <glyph glyph-name="multiply" unicode="&#xd7;" 
d="M433 205l-34 -34l-117 117l-114 -114l-33 33l114 114l-112 112l34 34l112 -112l114 114l33 -33l-114 -114z" />
    <glyph glyph-name="Oslash" unicode="&#xd8;" horiz-adv-x="781" 
d="M121 363q0 -205 122 -290l253 605q-45 18 -98 18q-121 0 -199 -88.5t-78 -244.5zM390 29q121 0 196 88.5t75 251.5q0 203 -123 286l-252 -606q49 -20 104 -20zM386 -12q-63 0 -118 19l-32 -77h-53l41 98q-76 44 -115 131.5t-39 204.5q0 166 87.5 269.5t242.5 103.5
q62 0 113 -19l32 76h51l-40 -95q77 -44 116 -127.5t39 -192.5q0 -180 -84.5 -285.5t-240.5 -105.5z" />
    <glyph glyph-name="Ugrave" unicode="&#xd9;" horiz-adv-x="718" 
d="M390 767l-135 144h73l105 -130zM360 32q100 0 151 44.5t51 153.5v494h48v-496q0 -240 -256 -240q-128 0 -187 61t-59 179v496h48v-492q0 -108 53 -154t151 -46z" />
    <glyph glyph-name="Uacute" unicode="&#xda;" horiz-adv-x="718" 
d="M467 911l-135 -144l-42 14l104 130h73zM360 32q100 0 151 44.5t51 153.5v494h48v-496q0 -240 -256 -240q-128 0 -187 61t-59 179v496h48v-492q0 -108 53 -154t151 -46z" />
    <glyph glyph-name="Ucircumflex" unicode="&#xdb;" horiz-adv-x="718" 
d="M452 769l-94 83l-90 -85l-48 11l123 116h36l123 -116zM360 32q100 0 151 44.5t51 153.5v494h48v-496q0 -240 -256 -240q-128 0 -187 61t-59 179v496h48v-492q0 -108 53 -154t151 -46z" />
    <glyph glyph-name="Udieresis" unicode="&#xdc;" horiz-adv-x="718" 
d="M499 826q0 -42 -44 -42q-21 0 -33 11t-12 31t12 31t33 11q44 0 44 -42zM308 826q0 -42 -44 -42q-45 0 -45 42t45 42q44 0 44 -42zM360 32q100 0 151 44.5t51 153.5v494h48v-496q0 -240 -256 -240q-128 0 -187 61t-59 179v496h48v-492q0 -108 53 -154t151 -46z" />
    <glyph glyph-name="Yacute" unicode="&#xdd;" horiz-adv-x="538" 
d="M381 911l-135 -144l-42 14l104 130h73zM297 291v-291h-48v287l-245 437h54l216 -384h1l210 384h49z" />
    <glyph glyph-name="Thorn" unicode="&#xde;" horiz-adv-x="612" 
d="M159 208h132q51 0 87 6.5t68.5 25t48.5 56t16 93.5q0 163 -204 163h-148v-344zM159 165v-165h-47v724h46v-131h163q129 0 185 -57.5t56 -147.5q0 -223 -272 -223h-131z" />
    <glyph glyph-name="germandbls" unicode="&#xdf;" horiz-adv-x="660" 
d="M142 0h-49v537q0 230 221 230q209 0 209 -174q0 -64 -32.5 -107t-86.5 -62v-3q94 -15 145 -65t51 -146q0 -105 -51.5 -163t-141.5 -58q-84 0 -128.5 37t-58.5 118l49 10q20 -120 136 -120q69 0 106 43.5t37 121.5q0 190 -219 190h-43v46h14q89 0 130.5 44.5t41.5 104.5
q0 137 -158 137q-86 0 -129 -42.5t-43 -154.5v-524z" />
    <glyph glyph-name="agrave" unicode="&#xe0;" horiz-adv-x="536" 
d="M310 572l-144 179h72l113 -165zM391 102v150q-23 3 -78 3q-88 0 -138.5 -26.5t-50.5 -97.5q0 -101 105 -101q48 0 92 19.5t70 52.5zM440 348v-276q0 -23 6 -32.5t25 -9.5q12 0 31 6l4 -32q-22 -12 -54 -12q-31 0 -45.5 19t-12.5 45q-68 -68 -172 -68q-46 0 -78 14
t-46.5 37.5t-20 44t-5.5 42.5q0 170 249 170q23 0 69 -2v45q0 77 -25.5 107.5t-95.5 30.5q-62 0 -91 -22.5t-38 -72.5l-47 8q12 69 56 98.5t124 29.5q90 0 128.5 -38.5t38.5 -131.5z" />
    <glyph glyph-name="aacute" unicode="&#xe1;" horiz-adv-x="536" 
d="M383 751l-143 -179l-42 14l113 165h72zM391 102v150q-23 3 -78 3q-88 0 -138.5 -26.5t-50.5 -97.5q0 -101 105 -101q48 0 92 19.5t70 52.5zM440 348v-276q0 -23 6 -32.5t25 -9.5q12 0 31 6l4 -32q-22 -12 -54 -12q-31 0 -45.5 19t-12.5 45q-68 -68 -172 -68q-46 0 -78 14
t-46.5 37.5t-20 44t-5.5 42.5q0 170 249 170q23 0 69 -2v45q0 77 -25.5 107.5t-95.5 30.5q-62 0 -91 -22.5t-38 -72.5l-47 8q12 69 56 98.5t124 29.5q90 0 128.5 -38.5t38.5 -131.5z" />
    <glyph glyph-name="acircumflex" unicode="&#xe2;" horiz-adv-x="536" 
d="M419 585l-47 -6l-101 129l-95 -132l-45 9l116 165h50zM391 102v150q-23 3 -78 3q-88 0 -138.5 -26.5t-50.5 -97.5q0 -101 105 -101q48 0 92 19.5t70 52.5zM440 348v-276q0 -23 6 -32.5t25 -9.5q12 0 31 6l4 -32q-22 -12 -54 -12q-31 0 -45.5 19t-12.5 45
q-68 -68 -172 -68q-46 0 -78 14t-46.5 37.5t-20 44t-5.5 42.5q0 170 249 170q23 0 69 -2v45q0 77 -25.5 107.5t-95.5 30.5q-62 0 -91 -22.5t-38 -72.5l-47 8q12 69 56 98.5t124 29.5q90 0 128.5 -38.5t38.5 -131.5z" />
    <glyph glyph-name="atilde" unicode="&#xe3;" horiz-adv-x="536" 
d="M191 699q33 0 82.5 -22.5t70.5 -22.5q23 0 33 11t10 47l38 -2q7 -56 -16 -79t-61 -23q-30 0 -81.5 23t-74.5 23q-40 0 -39 -60l-36 2q-7 54 16 78.5t58 24.5zM391 102v150q-23 3 -78 3q-88 0 -138.5 -26.5t-50.5 -97.5q0 -101 105 -101q48 0 92 19.5t70 52.5zM440 348
v-276q0 -23 6 -32.5t25 -9.5q12 0 31 6l4 -32q-22 -12 -54 -12q-31 0 -45.5 19t-12.5 45q-68 -68 -172 -68q-46 0 -78 14t-46.5 37.5t-20 44t-5.5 42.5q0 170 249 170q23 0 69 -2v45q0 77 -25.5 107.5t-95.5 30.5q-62 0 -91 -22.5t-38 -72.5l-47 8q12 69 56 98.5t124 29.5
q90 0 128.5 -38.5t38.5 -131.5z" />
    <glyph glyph-name="adieresis" unicode="&#xe4;" horiz-adv-x="536" 
d="M411 665q0 -42 -44 -42q-21 0 -33 11t-12 31t12 31t33 11q44 0 44 -42zM220 665q0 -42 -44 -42q-45 0 -45 42t45 42q44 0 44 -42zM391 102v150q-23 3 -78 3q-88 0 -138.5 -26.5t-50.5 -97.5q0 -101 105 -101q48 0 92 19.5t70 52.5zM440 348v-276q0 -23 6 -32.5t25 -9.5
q12 0 31 6l4 -32q-22 -12 -54 -12q-31 0 -45.5 19t-12.5 45q-68 -68 -172 -68q-46 0 -78 14t-46.5 37.5t-20 44t-5.5 42.5q0 170 249 170q23 0 69 -2v45q0 77 -25.5 107.5t-95.5 30.5q-62 0 -91 -22.5t-38 -72.5l-47 8q12 69 56 98.5t124 29.5q90 0 128.5 -38.5t38.5 -131.5
z" />
    <glyph glyph-name="aring" unicode="&#xe5;" horiz-adv-x="536" 
d="M272 614q55 0 55 60q0 55 -55 55q-26 0 -41.5 -15.5t-15.5 -43.5q0 -56 57 -56zM374 674q0 -46 -27 -72t-75 -26q-46 0 -73.5 25t-27.5 67q0 48 28.5 73.5t72.5 25.5q45 0 73.5 -22.5t28.5 -70.5zM391 102v150q-23 3 -78 3q-88 0 -138.5 -26.5t-50.5 -97.5
q0 -101 105 -101q48 0 92 19.5t70 52.5zM440 348v-276q0 -23 6 -32.5t25 -9.5q12 0 31 6l4 -32q-22 -12 -54 -12q-31 0 -45.5 19t-12.5 45q-68 -68 -172 -68q-46 0 -78 14t-46.5 37.5t-20 44t-5.5 42.5q0 170 249 170q23 0 69 -2v45q0 77 -25.5 107.5t-95.5 30.5
q-62 0 -91 -22.5t-38 -72.5l-47 8q12 69 56 98.5t124 29.5q90 0 128.5 -38.5t38.5 -131.5z" />
    <glyph glyph-name="ae" unicode="&#xe6;" horiz-adv-x="873" 
d="M440 290h320v7q0 176 -145 176q-70 0 -120.5 -46t-54.5 -137zM230 31q108 0 182 80q-20 54 -22 141q-42 2 -73 2q-40 0 -69.5 -4t-60 -15.5t-47 -37t-16.5 -64.5q0 -102 106 -102zM612 -12q-125 0 -178 82q-89 -82 -213 -82q-46 0 -78 14t-46 37.5t-19.5 44t-5.5 42.5
q0 171 246 171q26 0 72 -2v71q0 54 -28 82.5t-94 28.5q-60 0 -89.5 -23.5t-38.5 -71.5l-47 9q12 68 56.5 97.5t125.5 29.5q126 0 155 -99q65 99 187 99q99 0 146.5 -57.5t47.5 -151.5q0 -27 -5 -65h-367q3 -117 49.5 -163t127.5 -46q62 0 94.5 25.5t45.5 79.5l47 -10
q-15 -73 -67.5 -107.5t-123.5 -34.5z" />
    <glyph glyph-name="ccedilla" unicode="&#xe7;" horiz-adv-x="530" 
d="M200 -193l15 34q26 -19 57 -19q26 0 39 14t13 36q0 27 -18.5 40.5t-62.5 14.5l8 63q-191 18 -191 262q0 133 61 199.5t175 66.5q75 0 125.5 -43t54.5 -122l-53 -6q-7 66 -39 97t-94 31q-75 0 -127 -50.5t-52 -165.5q0 -124 49 -174.5t124 -50.5q124 0 146 116l50 -10
q-13 -76 -65.5 -113t-124.5 -39l-4 -31q84 -10 84 -83q0 -40 -27 -65.5t-68 -25.5q-51 0 -75 24z" />
    <glyph glyph-name="egrave" unicode="&#xe8;" horiz-adv-x="543" 
d="M324 572l-144 179h72l113 -165zM112 287h320q5 186 -145 186q-70 0 -119.5 -45.5t-55.5 -140.5zM284 -12q-224 0 -224 266q0 132 66.5 198t166.5 66q97 0 143.5 -57.5t46.5 -150.5q0 -37 -5 -66h-366q2 -117 49 -163t127 -46q59 0 92 26t48 79l47 -9q-17 -73 -69 -108
t-122 -35z" />
    <glyph glyph-name="eacute" unicode="&#xe9;" horiz-adv-x="543" 
d="M397 751l-143 -179l-42 14l113 165h72zM112 287h320q5 186 -145 186q-70 0 -119.5 -45.5t-55.5 -140.5zM284 -12q-224 0 -224 266q0 132 66.5 198t166.5 66q97 0 143.5 -57.5t46.5 -150.5q0 -37 -5 -66h-366q2 -117 49 -163t127 -46q59 0 92 26t48 79l47 -9
q-17 -73 -69 -108t-122 -35z" />
    <glyph glyph-name="ecircumflex" unicode="&#xea;" horiz-adv-x="543" 
d="M433 585l-47 -6l-101 129l-95 -132l-45 9l116 165h50zM112 287h320q5 186 -145 186q-70 0 -119.5 -45.5t-55.5 -140.5zM284 -12q-224 0 -224 266q0 132 66.5 198t166.5 66q97 0 143.5 -57.5t46.5 -150.5q0 -37 -5 -66h-366q2 -117 49 -163t127 -46q59 0 92 26t48 79
l47 -9q-17 -73 -69 -108t-122 -35z" />
    <glyph glyph-name="edieresis" unicode="&#xeb;" horiz-adv-x="543" 
d="M425 665q0 -42 -44 -42q-21 0 -33 11t-12 31t12 31t33 11q44 0 44 -42zM234 665q0 -42 -44 -42q-45 0 -45 42t45 42q44 0 44 -42zM112 287h320q5 186 -145 186q-70 0 -119.5 -45.5t-55.5 -140.5zM284 -12q-224 0 -224 266q0 132 66.5 198t166.5 66q97 0 143.5 -57.5
t46.5 -150.5q0 -37 -5 -66h-366q2 -117 49 -163t127 -46q59 0 92 26t48 79l47 -9q-17 -73 -69 -108t-122 -35z" />
    <glyph glyph-name="igrave" unicode="&#xec;" horiz-adv-x="236" 
d="M158 572l-144 179h72l113 -165zM145 508v-508h-49v508h49z" />
    <glyph glyph-name="iacute" unicode="&#xed;" horiz-adv-x="236" 
d="M231 751l-143 -179l-42 14l113 165h72zM145 508v-508h-49v508h49z" />
    <glyph glyph-name="icircumflex" unicode="&#xee;" horiz-adv-x="236" 
d="M267 585l-47 -6l-101 129l-95 -132l-45 9l116 165h50zM145 508v-508h-49v508h49z" />
    <glyph glyph-name="idieresis" unicode="&#xef;" horiz-adv-x="236" 
d="M259 665q0 -42 -44 -42q-21 0 -33 11t-12 31t12 31t33 11q44 0 44 -42zM68 665q0 -42 -44 -42q-45 0 -45 42t45 42q44 0 44 -42zM145 508v-508h-49v508h49z" />
    <glyph glyph-name="eth" unicode="&#xf0;" horiz-adv-x="568" 
d="M105 252q0 -218 172 -218q178 0 178 277q0 46 -3 69q-24 30 -70.5 52t-95.5 22q-90 0 -135.5 -53.5t-45.5 -148.5zM227 586l-20 35l100 56q-61 42 -158 56l8.5 17t8.5 19q110 -13 186 -69l101 55l22 -35l-90 -49q123 -133 123 -355q0 -47 -5 -88.5t-20 -87t-39.5 -78
t-67 -53.5t-98.5 -21q-228 0 -228 265q0 107 61 177.5t170 70.5q90 0 163 -56q-29 129 -104 203z" />
    <glyph glyph-name="ntilde" unicode="&#xf1;" horiz-adv-x="578" 
d="M212 699q33 0 82.5 -22.5t70.5 -22.5q23 0 33 11t10 47l38 -2q7 -56 -16 -79t-61 -23q-30 0 -81.5 23t-74.5 23q-40 0 -39 -60l-36 2q-7 54 16 78.5t58 24.5zM490 342v-342h-49v340q0 66 -26 99.5t-87 33.5q-49 0 -104 -26t-82 -53v-394h-49v508h43l3 -66q106 76 198 76
q80 0 116.5 -44t36.5 -132z" />
    <glyph glyph-name="ograve" unicode="&#xf2;" horiz-adv-x="572" 
d="M332 572l-144 179h72l113 -165zM288 33q172 0 172 226q0 115 -42.5 164.5t-124.5 49.5q-84 0 -134 -54.5t-50 -162.5q0 -223 179 -223zM284 -12q-224 0 -224 264q0 125 62 195.5t175 70.5q109 0 162 -67t53 -186q0 -277 -228 -277z" />
    <glyph glyph-name="oacute" unicode="&#xf3;" horiz-adv-x="572" 
d="M405 751l-143 -179l-42 14l113 165h72zM288 33q172 0 172 226q0 115 -42.5 164.5t-124.5 49.5q-84 0 -134 -54.5t-50 -162.5q0 -223 179 -223zM284 -12q-224 0 -224 264q0 125 62 195.5t175 70.5q109 0 162 -67t53 -186q0 -277 -228 -277z" />
    <glyph glyph-name="ocircumflex" unicode="&#xf4;" horiz-adv-x="572" 
d="M441 585l-47 -6l-101 129l-95 -132l-45 9l116 165h50zM288 33q172 0 172 226q0 115 -42.5 164.5t-124.5 49.5q-84 0 -134 -54.5t-50 -162.5q0 -223 179 -223zM284 -12q-224 0 -224 264q0 125 62 195.5t175 70.5q109 0 162 -67t53 -186q0 -277 -228 -277z" />
    <glyph glyph-name="otilde" unicode="&#xf5;" horiz-adv-x="572" 
d="M213 699q33 0 82.5 -22.5t70.5 -22.5q23 0 33 11t10 47l38 -2q7 -56 -16 -79t-61 -23q-30 0 -81.5 23t-74.5 23q-40 0 -39 -60l-36 2q-7 54 16 78.5t58 24.5zM288 33q172 0 172 226q0 115 -42.5 164.5t-124.5 49.5q-84 0 -134 -54.5t-50 -162.5q0 -223 179 -223zM284 -12
q-224 0 -224 264q0 125 62 195.5t175 70.5q109 0 162 -67t53 -186q0 -277 -228 -277z" />
    <glyph glyph-name="odieresis" unicode="&#xf6;" horiz-adv-x="572" 
d="M433 665q0 -42 -44 -42q-21 0 -33 11t-12 31t12 31t33 11q44 0 44 -42zM242 665q0 -42 -44 -42q-45 0 -45 42t45 42q44 0 44 -42zM288 33q172 0 172 226q0 115 -42.5 164.5t-124.5 49.5q-84 0 -134 -54.5t-50 -162.5q0 -223 179 -223zM284 -12q-224 0 -224 264
q0 125 62 195.5t175 70.5q109 0 162 -67t53 -186q0 -277 -228 -277z" />
    <glyph glyph-name="divide" unicode="&#xf7;" 
d="M331 469q0 -52 -54 -52q-53 0 -53 52q0 53 53 53q54 0 54 -53zM470 295h-370v52h370v-52zM331 175q0 -52 -54 -52q-53 0 -53 52q0 53 53 53q54 0 54 -53z" />
    <glyph glyph-name="oslash" unicode="&#xf8;" horiz-adv-x="572" 
d="M109 256q0 -137 68 -190l177 399q-32 8 -61 8q-84 0 -134 -54.5t-50 -162.5zM288 33q172 0 172 226q0 139 -65 186l-178 -401q30 -11 71 -11zM284 -12q-45 0 -86 12l-32 -72h-50l40 91q-96 59 -96 233q0 125 62 195.5t175 70.5q45 0 76 -10l34 77h50l-43 -96
q98 -58 98 -224q0 -277 -228 -277z" />
    <glyph glyph-name="ugrave" unicode="&#xf9;" horiz-adv-x="581" 
d="M325 572l-144 179h72l113 -165zM90 167v341h49v-340q0 -67 25 -100t86 -33q49 0 103 25.5t82 53.5v394h49v-508h-43l-3 65q-52 -37 -97 -56t-100 -19q-81 0 -116 43.5t-35 133.5z" />
    <glyph glyph-name="uacute" unicode="&#xfa;" horiz-adv-x="581" 
d="M398 751l-143 -179l-42 14l113 165h72zM90 167v341h49v-340q0 -67 25 -100t86 -33q49 0 103 25.5t82 53.5v394h49v-508h-43l-3 65q-52 -37 -97 -56t-100 -19q-81 0 -116 43.5t-35 133.5z" />
    <glyph glyph-name="ucircumflex" unicode="&#xfb;" horiz-adv-x="581" 
d="M434 585l-47 -6l-101 129l-95 -132l-45 9l116 165h50zM90 167v341h49v-340q0 -67 25 -100t86 -33q49 0 103 25.5t82 53.5v394h49v-508h-43l-3 65q-52 -37 -97 -56t-100 -19q-81 0 -116 43.5t-35 133.5z" />
    <glyph glyph-name="udieresis" unicode="&#xfc;" horiz-adv-x="581" 
d="M426 665q0 -42 -44 -42q-21 0 -33 11t-12 31t12 31t33 11q44 0 44 -42zM235 665q0 -42 -44 -42q-45 0 -45 42t45 42q44 0 44 -42zM90 167v341h49v-340q0 -67 25 -100t86 -33q49 0 103 25.5t82 53.5v394h49v-508h-43l-3 65q-52 -37 -97 -56t-100 -19q-81 0 -116 43.5
t-35 133.5z" />
    <glyph glyph-name="yacute" unicode="&#xfd;" horiz-adv-x="457" 
d="M346 751l-143 -179l-42 14l113 165h72zM201 0l-184 508h52l159 -441h1l163 441h52l-232 -603q-27 -71 -63 -99.5t-88 -28.5q-38 0 -87 18l10 41q34 -16 80 -16q35 0 60.5 22t47.5 81z" />
    <glyph glyph-name="thorn" unicode="&#xfe;" horiz-adv-x="580" 
d="M144 395v-302q75 -61 157 -61q163 0 163 240q0 108 -34.5 155.5t-108.5 47.5q-49 0 -98.5 -24.5t-78.5 -55.5zM95 -212v967h48v-312q85 75 187 75q185 0 185 -251q0 -140 -60 -209.5t-154 -69.5q-78 0 -159 56v-256h-47z" />
    <glyph glyph-name="ydieresis" unicode="&#xff;" horiz-adv-x="457" 
d="M374 665q0 -42 -44 -42q-21 0 -33 11t-12 31t12 31t33 11q44 0 44 -42zM183 665q0 -42 -44 -42q-45 0 -45 42t45 42q44 0 44 -42zM201 0l-184 508h52l159 -441h1l163 441h52l-232 -603q-27 -71 -63 -99.5t-88 -28.5q-38 0 -87 18l10 41q34 -16 80 -16q35 0 60.5 22
t47.5 81z" />
    <glyph glyph-name="apostrophe" unicode="&#x2bc;" horiz-adv-x="500" 
d="M192 541l33 140h66l-57 -146z" />
    <glyph glyph-name="tilde" unicode="&#x2dc;" horiz-adv-x="500" 
d="M169 699q33 0 82.5 -22.5t70.5 -22.5q23 0 33 11t10 47l38 -2q7 -56 -16 -79t-61 -23q-30 0 -81.5 23t-74.5 23q-40 0 -39 -60l-36 2q-7 54 16 78.5t58 24.5z" />
    <glyph glyph-name="endash" unicode="&#x2013;" horiz-adv-x="500" 
d="M499 263h-499v39h499v-39z" />
    <glyph glyph-name="emdash" unicode="&#x2014;" horiz-adv-x="1000" 
d="M999 263h-999v39h999v-39z" />
    <glyph glyph-name="quoteleft" unicode="&#x2018;" horiz-adv-x="168" 
d="M159 764l-53 -204h-65l77 211z" />
    <glyph glyph-name="quoteright" unicode="&#x2019;" horiz-adv-x="168" 
d="M29 556l53 204h65l-77 -211z" />
    <glyph glyph-name="quotedblleft" unicode="&#x201c;" horiz-adv-x="303" 
d="M159 764l-53 -204h-65l77 211zM293 764l-53 -204h-65l77 211z" />
    <glyph glyph-name="quotedblright" unicode="&#x201d;" horiz-adv-x="303" 
d="M29 556l53 204h65l-77 -211zM163 556l53 204h65l-77 -211z" />
    <glyph glyph-name="quotedblbase" unicode="&#x201e;" horiz-adv-x="290" 
d="M151 -123l53 204h65l-77 -211zM18 -123l53 204h65l-77 -211z" />
    <glyph glyph-name="bullet" unicode="&#x2022;" horiz-adv-x="345" 
d="M300 280q0 -124 -128 -124q-127 0 -127 124t127 124q128 0 128 -124z" />
    <glyph glyph-name="ellipsis" unicode="&#x2026;" horiz-adv-x="590" 
d="M536 37q0 -49 -51 -49q-50 0 -50 49q0 48 50 48q51 0 51 -48zM155 37q0 -49 -51 -49q-50 0 -50 49q0 48 50 48q51 0 51 -48zM351 37q0 -49 -51 -49q-50 0 -50 49q0 48 50 48q51 0 51 -48z" />
    <glyph glyph-name="guilsinglleft" unicode="&#x2039;" horiz-adv-x="278" 
d="M214 103h-55l-88 158l89 147h54l-84 -146z" />
    <glyph glyph-name="guilsinglright" unicode="&#x203a;" horiz-adv-x="278" 
d="M61 408h54l88 -156l-89 -149h-55l88 148z" />
    <glyph glyph-name="Euro" unicode="&#x20ac;" horiz-adv-x="589" 
d="M342 -12q-48 0 -86.5 11t-76 39t-62 83t-33.5 135h-86l7 42h75q-1 16 -1 50q0 23 2 65h-66l7 42h63q10 82 38 139.5t67.5 87.5t80.5 42.5t89 12.5q91 0 147 -50t62 -149l-46 -6q-10 85 -48 123t-118 38q-192 0 -220 -238h258l-8 -42h-254q-2 -14 -2 -64q0 -35 1 -51h236
l-8 -42h-224q12 -112 61.5 -167.5t145.5 -55.5q150 0 177 140l44 -13q-15 -87 -77 -129.5t-145 -42.5z" />
    <glyph glyph-name="trademark" unicode="&#x2122;" horiz-adv-x="816" 
d="M198 683v-335h-46v335h-136v41h319v-41h-137zM751 348h-42v291l-120 -291h-35l-117 292v-292h-44v376h56l124 -307l128 307h50v-376z" />
    </font>
</defs>
</svg>
